<svg fill="none" height="40" viewBox="0 0 150 40" width="150" xmlns="http://www.w3.org/2000/svg" xmlns:xlink="http://www.w3.org/1999/xlink"><mask id="a" fill="#000" height="42" maskUnits="userSpaceOnUse" width="152" x="-.999039" y="-1"><path d="m-.999039-1h152v42h-152z" fill="#fff"/><path clip-rule="evenodd" d="m102.928 30.5982c.19-.1097.436-.1097.626 0v-.0007c.207.1185.324.3209.324.5464s-.117.4271-.314.5402l-14.4648 8.3159-.0773-.0436-17.317-9.9564v-19.9993l.0773-.04431 17.317-9.95639.078.0442839 14.3868 8.2722361c.197.11242.313.31476.313.54027s-.116.42785-.313.54026c-.21.12059-.446.11446-.636.00613l-13.8295-7.95067-16.1319 9.27379v18.5481l16.1319 9.2744zm-36.074-13.2212c-.271-.4196-.57-.8202-.897-1.1922h.0007c-.7184-.8148-1.5709-1.5152-2.5329-2.0868l-.0011-.0431v-.0002c-.0012-.0426-.0023-.0851-.0023-.1284v-.002c.0027-1.178.1909-2.3205.5576-3.3956.2012-.58727.4605-1.16296.7725-1.71072.1696-.29704.3557-.58659.5555-.86251l.0048-.00613c.18-.24527.4283-.5682.7615-.8959l.7807-.76645zm-2.2941 1.317.0007.0013c.0602.1165.1211.2309.1861.3453.1697.2949.3571.585.5569.8601l.0048.0069c.0246.0326.0534.0708.0801.1055.1724-.2288.3961-.5053.6869-.7893l.4297-.4189c-.1923-.0326-.3668-.0538-.5159-.0701l-.0069-.0014c-.325-.0333-.6541-.0504-.979-.0504h-.0002l-.0263.0001c-.0079.0001-.0159.0003-.0242.0006-.1307.0007-.2613.0062-.392.0116v-.0013zm0 0c-.2303-.4431-.4278-.9012-.5877-1.3674-.3497-1.028-.5317-2.1133-.5481-3.2286l-.024-.0144-.0318-.0193-.0002-.0001-.0001-.0001-.0002-.0001c-.0303-.0185-.0606-.0369-.0915-.0546l-.0013-.0013c-1.0256-.5853-2.1135-.9947-3.2328-1.2162-.611-.1205-1.2419-.1846-1.8754-.19h-.065c-.3195 0-.6425.0163-.9613.0477l-.0082.0006c-.3031.0334-.7089.0859-1.1591.2099l-1.0577.2895.2771 1.056c.117.451.2737.8271.3968 1.1051l.0034.0075c.141.3106.299.6159.4728.9102.3202.543.6917 1.0546 1.1023 1.5206.7512.8544 1.6509 1.5881 2.6738 2.1802l.0014.0006c.0426.0242.0848.0468.1274.0697l.0238.0128c.9777-.5437 2.0129-.9286 3.0809-1.1405.4862-.0967.9841-.1553 1.4847-.1778zm.0007 2.6386h-.0004l.0004-.0007zm-.0004 0c-.2304.4426-.428.9009-.588 1.3687-.349 1.0267-.5317 2.112-.5481 3.228l-.0207.0124-.0338.0206h-.0001c-.0306.0188-.0614.0376-.0932.0555l-.0013.0007c-1.0256.5866-2.1135.9954-3.2328 1.2168-.611.1213-1.2412.1846-1.8734.1901h-.0663c-.3196 0-.6425-.0157-.9613-.0484l-.0082-.0007c-.3031-.0327-.7089-.0858-1.1591-.2091l-1.0577-.2896.2771-1.0567c.1183-.4503.2736-.8271.3968-1.1043l.0034-.0075c.141-.3107.299-.6166.4714-.9096.3209-.5436.6917-1.056 1.103-1.522.7512-.855 1.6509-1.5881 2.6738-2.1801l.0014-.0007c.0506-.0286.1005-.0552.1512-.0831.9777.5444 2.0129.9286 3.0816 1.1412.4856.0967.9836.1546 1.4843.1778zm1.3975 2.5098c-.7191.8155-1.5716 1.5159-2.5336 2.0875-.0003.024-.0009.0481-.0016.0724v.0001.0002.0002.0001.0002.0001c-.0009.0326-.0018.0654-.0018.0984v.0014c.0034 1.1779.1916 2.3211.5576 3.3955.2012.5873.4605 1.1637.7732 1.7121.1683.2943.3551.5846.5548.8612l.0048.0068c.1793.2446.4283.5682.7615.8945l.7807.7671v-11.09c-.2696.4203-.5699.8203-.8963 1.1916zm-.5959-3.7927.0273-.0361c.1731.2288.3962.506.6869.79l.429.4182c-.1915.0327-.366.0545-.5152.0708l-.0068.0007c-.325.034-.6541.0504-.9791.0504h-.0492c-.1314-.0014-.2628-.0055-.3935-.0116.0596-.1158.1212-.2302.1855-.3439.169-.2956.3571-.5857.5576-.8629l.0048-.0054c.0162-.0221.0343-.0459.0524-.0698zm-62.04825 1.9669 3.52018-7.0411 3.49827 7.0411zm4.04153-8.4698c-.11015-.186-.29489-.2875-.52067-.2875-.24289 0-.4372.1029-.55214.3011l-6.2336983 12.5187c-.070472.1322-.0622617.276.0218942.4034.0725251.1097.1806271.1873.3229401.2296.140259.0408.288045.0367.426937-.0157.140944-.0525.242887-.1376.305837-.2562l1.71254-3.4643h7.96808l1.7324 3.4568c.0883.1997.2771.3093.5323.3093.0842 0 .1574-.0109.2142-.0333.3044-.1036.4365-.3359.3462-.605l-6.27682-12.5562zm17.66722 7.2271h4.1702l.0027-.0007c.4338 0 .5878.2521.5878.4878v5.0103c0 .1103-.0424.4694-.5878.4694-.5453 0-.587-.3591-.587-.4694v-1.8177c-.1799.2037-.3783.3979-.5946.5791-.4221.357-.9031.6656-1.4299.919-.5255.2528-1.1016.449-1.7112.5846-.6103.1356-1.2589.2044-1.9267.2044-.9264 0-1.8145-.1336-2.6396-.3986s-1.5579-.6363-2.1798-1.1037c-.624-.4687-1.1208-1.0246-1.4772-1.6507-.3585-.6323-.5405-1.3136-.5405-2.0248v-3.1265c0-.7113.1826-1.3932.5418-2.0248.3565-.6261.8539-1.182 1.4793-1.6514.6212-.466 1.356-.8367 2.1839-1.1024.8265-.265 1.716-.3985 2.6444-.3985.7896 0 1.5634.1042 2.2955.3113.73.2058 1.4026.494 1.9979.8564.5966.3645 1.1111.8026 1.5271 1.3026.4208.5062.7129 1.0629.871 1.6556.028.1369.0075.2561-.0582.3522-.0773.1138-.21.1887-.3948.2228-.0643.0068-.104.0095-.1423.0095-.3038 0-.5166-.1478-.5686-.3951-.1238-.4735-.3578-.9232-.6944-1.3285-.3407-.4115-.7636-.7719-1.2555-1.0703-.4947-.2991-1.0544-.5369-1.6619-.7059-.6083-.1682-1.2569-.2534-1.9301-.2534-.7855 0-1.5319.1124-2.2196.3352-.6876.2235-1.2945.53-1.8035.9129-.5056.3809-.9113.8332-1.2035 1.3442-.2887.5048-.4358 1.0526-.4358 1.6283v3.1264c0 .5757.1471 1.1235.4358 1.6283.2915.511.6965.9627 1.2035 1.3442.509.3829 1.1159.6895 1.8035.9123.687.2221 1.4334.3352 2.2196.3352.7861 0 1.5319-.1131 2.2188-.3352.6876-.2228 1.2938-.5294 1.8035-.9123.5063-.3808.9121-.8332 1.2042-1.3442.26-.4551.4051-.9456.4311-1.4593h-3.5791c-.5562 0-.5993-.3604-.5993-.4708 0-.3059.2237-.4878.5993-.4878zm16.7211.9273c-.637.2091-1.3246.3147-2.043.3147h-5.2615v-7.7987h5.2615c.7184 0 1.4067.1028 2.045.3066.6384.2037 1.2015.4871 1.6777.8441.4727.3549.8484.7732 1.1152 1.2454.2648.4673.3982.9695.3982 1.4934 0 .5246-.1334 1.0274-.3982 1.494-.2675.4722-.6431.8912-1.1152 1.2461-.4769.3577-1.0421.6445-1.679.8537zm2.4624-7.0248c-.5795-.4361-1.261-.7849-2.0266-1.037-.7677-.2527-1.6017-.3801-2.4788-.3801h-5.8362c-.4235 0-.5741.2521-.5741.4878l-.0253 12.5248c0 .2269.1506.4695.5754.4695.5563 0 .5994-.3591.5994-.4695v-3.2967h5.2614c.427 0 .8471-.0321 1.2508-.0927l3.2636 3.662c.1142.1294.2764.1969.47.1969.0431 0 .1081-.0055.2819-.0505l.0315-.0115c.1573-.0702.2545-.1908.273-.3366.0143-.126-.0226-.2466-.117-.3645l-3.0037-3.3615c.4886-.1567.9518-.3577 1.378-.5995.5289-.3005.9859-.6541 1.3588-1.0519.375-.3993.6746-.8435.8922-1.3211.2203-.4837.3318-.9981.3318-1.5274 0-.6745-.1737-1.3149-.5165-1.9035-.3387-.5819-.806-1.0983-1.3882-1.5364zm5.4147-.9293c0-.2357.1505-.4878.574-.4878.377 0 .6008.1819.6008.4878v12.5248c0 .1104-.0438.4695-.6008.4695-.4228 0-.574-.2426-.574-.4695zm41.2836-.4878c-.4331 0-.5884.2514-.5884.4871v5.7651h-11.3241v-5.7651c0-.3059-.2237-.4871-.5994-.4871-.4235 0-.5747.2521-.5747.4878v12.5248c0 .2269.1512.4695.5747.4695.5563 0 .5994-.3591.5994-.4695v-5.8018h11.3241v5.8018c0 .1104.0424.4695.5884.4695.5439 0 .5863-.3591.5863-.4695v-12.5248c0-.2357-.1539-.4878-.5863-.4878zm17.7199.4878c0 .2275-.152.4701-.575.4701h-11.8992v5.295h9.8202c.424 0 .575.2473.575.4782 0 .2324-.151.4797-.575.4797h-9.8202v5.3127h11.8992c.424 0 .575.2527.575.4891 0 .2269-.152.4695-.575.4695h-12.4992c-.4242 0-.5754-.2426-.5754-.4695v-12.5248c0-.2357.1512-.4878.5754-.4878h12.4992c.424 0 .575.2521.575.4878zm18.836-.4626c-.269-.0586-.5.0041-.65.1764l-6.801 8.1966-6.81-8.2054-.018-.0184c-.133-.1131-.281-.171-.441-.171-.056 0-.113.0075-.159.0204-.281.0463-.448.2194-.448.4646v12.5249c0 .2269.151.4694.574.4694.557 0 .601-.359.601-.4694v-10.9824l6.218 7.4887c.114.1288.281.1969.483.1969.279 0 .411-.1267.467-.2084l6.235-7.4786v10.9838c0 .1104.041.4694.587.4694.545 0 .587-.359.587-.4694v-12.5249c0-.2439-.166-.4217-.425-.4626zm3.909.4626c0-.2357.151-.4878.575-.4878.376 0 .6.1819.6.4878v12.5248c0 .1104-.043.4695-.6.4695-.424 0-.575-.2426-.575-.4695zm8.024 8.2695 3.52-7.0411 3.498 7.0411zm10.319 4.0877-6.277-12.5575c-.11-.186-.295-.2875-.52-.2875-.243 0-.438.1029-.553.3011l-6.233 12.5187c-.071.1322-.063.2753.022.4034.072.1097.18.1873.322.2296.14.0408.288.0367.427-.0157.141-.0525.243-.1376.306-.2562l1.713-3.4643h7.968l1.734 3.4568c.088.1997.277.3093.532.3093.084 0 .157-.0109.214-.0333.304-.1036.437-.3359.346-.6044z" fill="#000" fill-rule="evenodd"/></mask><g fill="#fff"><path clip-rule="evenodd" d="m102.928 30.5982c.19-.1097.436-.1097.626 0v-.0007c.207.1185.324.3209.324.5464s-.117.4271-.314.5402l-14.4648 8.3159-.0773-.0436-17.317-9.9564v-19.9993l.0773-.04431 17.317-9.95639.078.0442839 14.3868 8.2722361c.197.11242.313.31476.313.54027s-.116.42785-.313.54026c-.21.12059-.446.11446-.636.00613l-13.8295-7.95067-16.1319 9.27379v18.5481l16.1319 9.2744zm-36.074-13.2212c-.271-.4196-.57-.8202-.897-1.1922h.0007c-.7184-.8148-1.5709-1.5152-2.5329-2.0868l-.0011-.0431v-.0002c-.0012-.0426-.0023-.0851-.0023-.1284v-.002c.0027-1.178.1909-2.3205.5576-3.3956.2012-.58727.4605-1.16296.7725-1.71072.1696-.29704.3557-.58659.5555-.86251l.0048-.00613c.18-.24527.4283-.5682.7615-.8959l.7807-.76645zm-2.2941 1.317.0007.0013c.0602.1165.1211.2309.1861.3453.1697.2949.3571.585.5569.8601l.0048.0069c.0246.0326.0534.0708.0801.1055.1724-.2288.3961-.5053.6869-.7893l.4297-.4189c-.1923-.0326-.3668-.0538-.5159-.0701l-.0069-.0014c-.325-.0333-.6541-.0504-.979-.0504h-.0002l-.0263.0001c-.0079.0001-.0159.0003-.0242.0006-.1307.0007-.2613.0062-.392.0116v-.0013zm0 0c-.2303-.4431-.4278-.9012-.5877-1.3674-.3497-1.028-.5317-2.1133-.5481-3.2286l-.024-.0144-.0318-.0193-.0002-.0001-.0001-.0001-.0002-.0001c-.0303-.0185-.0606-.0369-.0915-.0546l-.0013-.0013c-1.0256-.5853-2.1135-.9947-3.2328-1.2162-.611-.1205-1.2419-.1846-1.8754-.19h-.065c-.3195 0-.6425.0163-.9613.0477l-.0082.0006c-.3031.0334-.7089.0859-1.1591.2099l-1.0577.2895.2771 1.056c.117.451.2737.8271.3968 1.1051l.0034.0075c.141.3106.299.6159.4728.9102.3202.543.6917 1.0546 1.1023 1.5206.7512.8544 1.6509 1.5881 2.6738 2.1802l.0014.0006c.0426.0242.0848.0468.1274.0697l.0238.0128c.9777-.5437 2.0129-.9286 3.0809-1.1405.4862-.0967.9841-.1553 1.4847-.1778zm.0007 2.6386h-.0004l.0004-.0007zm-.0004 0c-.2304.4426-.428.9009-.588 1.3687-.349 1.0267-.5317 2.112-.5481 3.228l-.0207.0124-.0338.0206h-.0001c-.0306.0188-.0614.0376-.0932.0555l-.0013.0007c-1.0256.5866-2.1135.9954-3.2328 1.2168-.611.1213-1.2412.1846-1.8734.1901h-.0663c-.3196 0-.6425-.0157-.9613-.0484l-.0082-.0007c-.3031-.0327-.7089-.0858-1.1591-.2091l-1.0577-.2896.2771-1.0567c.1183-.4503.2736-.8271.3968-1.1043l.0034-.0075c.141-.3107.299-.6166.4714-.9096.3209-.5436.6917-1.056 1.103-1.522.7512-.855 1.6509-1.5881 2.6738-2.1801l.0014-.0007c.0506-.0286.1005-.0552.1512-.0831.9777.5444 2.0129.9286 3.0816 1.1412.4856.0967.9836.1546 1.4843.1778zm1.3975 2.5098c-.7191.8155-1.5716 1.5159-2.5336 2.0875-.0003.024-.0009.0481-.0016.0724v.0001.0002.0002.0001.0002.0001c-.0009.0326-.0018.0654-.0018.0984v.0014c.0034 1.1779.1916 2.3211.5576 3.3955.2012.5873.4605 1.1637.7732 1.7121.1683.2943.3551.5846.5548.8612l.0048.0068c.1793.2446.4283.5682.7615.8945l.7807.7671v-11.09c-.2696.4203-.5699.8203-.8963 1.1916zm-.5959-3.7927.0273-.0361c.1731.2288.3962.506.6869.79l.429.4182c-.1915.0327-.366.0545-.5152.0708l-.0068.0007c-.325.034-.6541.0504-.9791.0504h-.0492c-.1314-.0014-.2628-.0055-.3935-.0116.0596-.1158.1212-.2302.1855-.3439.169-.2956.3571-.5857.5576-.8629l.0048-.0054c.0162-.0221.0343-.0459.0524-.0698zm-62.04825 1.9669 3.52018-7.0411 3.49827 7.0411zm4.04153-8.4698c-.11015-.186-.29489-.2875-.52067-.2875-.24289 0-.4372.1029-.55214.3011l-6.2336983 12.5187c-.070472.1322-.0622617.276.0218942.4034.0725251.1097.1806271.1873.3229401.2296.140259.0408.288045.0367.426937-.0157.140944-.0525.242887-.1376.305837-.2562l1.71254-3.4643h7.96808l1.7324 3.4568c.0883.1997.2771.3093.5323.3093.0842 0 .1574-.0109.2142-.0333.3044-.1036.4365-.3359.3462-.605l-6.27682-12.5562zm17.66722 7.2271h4.1702l.0027-.0007c.4338 0 .5878.2521.5878.4878v5.0103c0 .1103-.0424.4694-.5878.4694-.5453 0-.587-.3591-.587-.4694v-1.8177c-.1799.2037-.3783.3979-.5946.5791-.4221.357-.9031.6656-1.4299.919-.5255.2528-1.1016.449-1.7112.5846-.6103.1356-1.2589.2044-1.9267.2044-.9264 0-1.8145-.1336-2.6396-.3986s-1.5579-.6363-2.1798-1.1037c-.624-.4687-1.1208-1.0246-1.4772-1.6507-.3585-.6323-.5405-1.3136-.5405-2.0248v-3.1265c0-.7113.1826-1.3932.5418-2.0248.3565-.6261.8539-1.182 1.4793-1.6514.6212-.466 1.356-.8367 2.1839-1.1024.8265-.265 1.716-.3985 2.6444-.3985.7896 0 1.5634.1042 2.2955.3113.73.2058 1.4026.494 1.9979.8564.5966.3645 1.1111.8026 1.5271 1.3026.4208.5062.7129 1.0629.871 1.6556.028.1369.0075.2561-.0582.3522-.0773.1138-.21.1887-.3948.2228-.0643.0068-.104.0095-.1423.0095-.3038 0-.5166-.1478-.5686-.3951-.1238-.4735-.3578-.9232-.6944-1.3285-.3407-.4115-.7636-.7719-1.2555-1.0703-.4947-.2991-1.0544-.5369-1.6619-.7059-.6083-.1682-1.2569-.2534-1.9301-.2534-.7855 0-1.5319.1124-2.2196.3352-.6876.2235-1.2945.53-1.8035.9129-.5056.3809-.9113.8332-1.2035 1.3442-.2887.5048-.4358 1.0526-.4358 1.6283v3.1264c0 .5757.1471 1.1235.4358 1.6283.2915.511.6965.9627 1.2035 1.3442.509.3829 1.1159.6895 1.8035.9123.687.2221 1.4334.3352 2.2196.3352.7861 0 1.5319-.1131 2.2188-.3352.6876-.2228 1.2938-.5294 1.8035-.9123.5063-.3808.9121-.8332 1.2042-1.3442.26-.4551.4051-.9456.4311-1.4593h-3.5791c-.5562 0-.5993-.3604-.5993-.4708 0-.3059.2237-.4878.5993-.4878zm16.7211.9273c-.637.2091-1.3246.3147-2.043.3147h-5.2615v-7.7987h5.2615c.7184 0 1.4067.1028 2.045.3066.6384.2037 1.2015.4871 1.6777.8441.4727.3549.8484.7732 1.1152 1.2454.2648.4673.3982.9695.3982 1.4934 0 .5246-.1334 1.0274-.3982 1.494-.2675.4722-.6431.8912-1.1152 1.2461-.4769.3577-1.0421.6445-1.679.8537zm2.4624-7.0248c-.5795-.4361-1.261-.7849-2.0266-1.037-.7677-.2527-1.6017-.3801-2.4788-.3801h-5.8362c-.4235 0-.5741.2521-.5741.4878l-.0253 12.5248c0 .2269.1506.4695.5754.4695.5563 0 .5994-.3591.5994-.4695v-3.2967h5.2614c.427 0 .8471-.0321 1.2508-.0927l3.2636 3.662c.1142.1294.2764.1969.47.1969.0431 0 .1081-.0055.2819-.0505l.0315-.0115c.1573-.0702.2545-.1908.273-.3366.0143-.126-.0226-.2466-.117-.3645l-3.0037-3.3615c.4886-.1567.9518-.3577 1.378-.5995.5289-.3005.9859-.6541 1.3588-1.0519.375-.3993.6746-.8435.8922-1.3211.2203-.4837.3318-.9981.3318-1.5274 0-.6745-.1737-1.3149-.5165-1.9035-.3387-.5819-.806-1.0983-1.3882-1.5364zm5.4147-.9293c0-.2357.1505-.4878.574-.4878.377 0 .6008.1819.6008.4878v12.5248c0 .1104-.0438.4695-.6008.4695-.4228 0-.574-.2426-.574-.4695zm41.2836-.4878c-.4331 0-.5884.2514-.5884.4871v5.7651h-11.3241v-5.7651c0-.3059-.2237-.4871-.5994-.4871-.4235 0-.5747.2521-.5747.4878v12.5248c0 .2269.1512.4695.5747.4695.5563 0 .5994-.3591.5994-.4695v-5.8018h11.3241v5.8018c0 .1104.0424.4695.5884.4695.5439 0 .5863-.3591.5863-.4695v-12.5248c0-.2357-.1539-.4878-.5863-.4878zm17.7199.4878c0 .2275-.152.4701-.575.4701h-11.8992v5.295h9.8202c.424 0 .575.2473.575.4782 0 .2324-.151.4797-.575.4797h-9.8202v5.3127h11.8992c.424 0 .575.2527.575.4891 0 .2269-.152.4695-.575.4695h-12.4992c-.4242 0-.5754-.2426-.5754-.4695v-12.5248c0-.2357.1512-.4878.5754-.4878h12.4992c.424 0 .575.2521.575.4878zm18.836-.4626c-.269-.0586-.5.0041-.65.1764l-6.801 8.1966-6.81-8.2054-.018-.0184c-.133-.1131-.281-.171-.441-.171-.056 0-.113.0075-.159.0204-.281.0463-.448.2194-.448.4646v12.5249c0 .2269.151.4694.574.4694.557 0 .601-.359.601-.4694v-10.9824l6.218 7.4887c.114.1288.281.1969.483.1969.279 0 .411-.1267.467-.2084l6.235-7.4786v10.9838c0 .1104.041.4694.587.4694.545 0 .587-.359.587-.4694v-12.5249c0-.2439-.166-.4217-.425-.4626zm3.909.4626c0-.2357.151-.4878.575-.4878.376 0 .6.1819.6.4878v12.5248c0 .1104-.043.4695-.6.4695-.424 0-.575-.2426-.575-.4695zm8.024 8.2695 3.52-7.0411 3.498 7.0411zm10.319 4.0877-6.277-12.5575c-.11-.186-.295-.2875-.52-.2875-.243 0-.438.1029-.553.3011l-6.233 12.5187c-.071.1322-.063.2753.022.4034.072.1097.18.1873.322.2296.14.0408.288.0367.427-.0157.141-.0525.243-.1376.306-.2562l1.713-3.4643h7.968l1.734 3.4568c.088.1997.277.3093.532.3093.084 0 .157-.0109.214-.0333.304-.1036.437-.3359.346-.6044z" fill-rule="evenodd"/><path d="m103.554 30.5982-.2.3465.6.3459v-.6924zm-.626 0 .199.3467.001-.0005zm.626-.0007.199-.347-.599-.3437v.6907zm.01 1.0866.2.3468v-.0001zm-14.4648 8.3159-.1965.3484.1984.1119.1975-.1135zm-.0773-.0436-.1994.3468.0029.0016zm-17.317-9.9564h-.4v.2314l.2006.1154zm0-19.9993-.1988-.34712-.2012.11524v.23188zm.0773-.04431.1988.34711.0006-.0003zm17.317-9.95639.1975-.347843-.1987-.112842-.1982.113915zm.078.0442839.1994-.3467719-.0019-.001071zm14.3868 8.2722361-.199.34677.001.00037zm0 1.08053-.198-.34714-.001.00024zm-.636.00613-.199.34678.001.00081zm-13.8295-7.95067.1994-.34677-.1994-.114615-.1993.114605zm-16.1319 9.27379-.1994-.3468-.2006.1153v.2315zm0 18.5481h-.4v.2314l.2006.1154zm16.1319 9.2744-.1994.3468.1994.1146.1994-.1146zm-23.1415-22.364v-.4h-.8843l.5839.6641zm.897 1.1922-.3361.217.7361 1.1401v-1.3571zm-.8963-1.1922v.4h.8859l-.5859-.6645zm-2.5329-2.0868-.3999.0104.0058.2207.1898.1128zm-.0011-.0431.3999-.0103-.0002-.0061zm0-.0002-.3999.0107.0002.0057zm-.0023-.1304-.4-.001v.001zm.5576-3.3956-.3784-.1296-.0002.0005zm.7725-1.71072-.3474-.1984-.0002.00043zm.5555-.86251-.3152-.2463-.0045.00578-.0043.00593zm.0048-.00613.3153.24641.0072-.00979zm.7615-.8959-.2802-.28543-.0003.00024zm.7807-.76645h.4v-.95328l-.6803.66785zm-2.1073 12.75361-.3478.1976.0011.0019zm.5569.8601.3272-.2301-.0035-.0049zm.0048.0069-.3273.2302.0078.0104zm.0801.1055-.3173.2437.3203.4169.3164-.4199zm.6869-.7893-.2792-.2864-.0003.0002zm.4297-.4189.2792.2865.5631-.549-.7753-.1318zm-.5159-.0701-.0782.3923.0172.0034.0174.0019zm-.0069-.0014.0782-.3923-.0185-.0036-.0188-.002zm-.9792-.0504v-.4h-.0016zm-.0263.0001-.0016-.4-.003.0001zm-.0242.0006.0021.4002.0133-.0005zm-.392.0103h.4v-.418l-.4176.0184zm-.5884-1.3674-.3787.1288.0003.001zm-.5481-3.2286.4-.0059-.0033-.2226-.191-.1146zm-.024-.0144-.2076.3419.0018.0011zm-.0318-.0193-.2097.3406.0021.0013zm-.0005-.0003.2097-.3407-.0018-.001zm-.0915-.0546-.2818.2838.0373.0371.0457.0262zm-.0013-.0013.2818-.2839-.0376-.0373-.046-.0263zm-3.2328-1.2162.0776-.3923-.0002-.0001zm-1.8754-.19.0034-.4h-.0034zm-1.0263.0477.0331.3986.006-.0006zm-.0082.0006-.0331-.3987-.0107.0011zm-1.1591.2099.1057.3858.0006-.0002zm-1.0577.2895-.1056-.3858-.3818.1045.1005.3829zm.2771 1.056.3872-.1004-.0003-.0011zm.3968 1.1051-.3657.162.0018.0041zm.0034.0075.3643-.1653-.0004-.0009zm.4728.9102.3446-.2032-.0002-.0002zm1.1023 1.5206.3003-.2641-.0002-.0003zm2.6738 2.1802-.2004.3461.011.0064.0113.0056zm.0014.0006.1968-.3482-.0093-.0052-.0095-.0047zm.1274.0697.1894-.3523-.0001-.0001zm.0238.0128-.1894.3523.1926.1036.1912-.1063zm3.0809-1.1405.0778.3923h.0002zm1.4854 2.4608-.0178.3996.4178.0186v-.4182zm0-.0007h.4l-.7555-.1833zm-.5884 1.3694-.3785-.1295-.0003.0008zm-.5481 3.228.2059.3429.1908-.1145.0033-.2226zm-.0207.0124-.2058-.343-.0023.0014zm-.0338.0206.2058.343.0023-.0014zm-.0001 0-.2058-.343-.0028.0018zm-.0932.0555.1773.3586.0099-.0049.0097-.0054zm-.0013.0007-.1773-.3586-.0108.0054-.0105.006zm-3.2328 1.2168-.0777-.3924h-.0002zm-1.8734.1901v.4h.0035zm-1.0276-.0484.0408-.398-.0078-.0006zm-.0082-.0007-.043.3978.0099.0008zm-1.1591-.2091.1057-.3858h-.0001zm-1.0577-.2896-.3869-.1014-.1004.3827.3817.1045zm.2771-1.0567-.3869-.1016v.0002zm.3968-1.1043-.364-.166-.0016.0036zm.0034-.0075.364.1659.0003-.0007zm.4714-.9096-.3444-.2033-.0003.0005zm1.103-1.522.2999.2647.0005-.0006zm2.6738-2.1801-.1777-.3584-.0115.0058-.0112.0064zm.0014-.0007.1776.3584.0097-.0048.0095-.0053zm.1512-.0831.1945-.3495-.1937-.1078-.1941.1071zm3.0816 1.1412.0781-.3923h-.0001zm.3482 4.7751-.2043-.3439-.1929.1147-.0027.2244zm2.5336-2.0875.3.2646.2495-.283-.2679-.2656zm-2.5352 2.1599-.4-.011v.011zm0 .0009.4.0111v-.0111zm-.0018.0998h-.4v.0011zm.5576 3.3955-.3786.129.0002.0006zm.7732 1.7121-.3475.1981.0002.0005zm.5548.8612.3273-.2302-.003-.004zm.0048.0068-.3272.2301.0046.0063zm.7615.8945.2804-.2853-.0005-.0005zm.7807.7671-.2804.2853.6804.6686v-.9539zm0-11.09h.4v-1.3648l-.7367 1.1488zm-.8963 1.1916-.3004-.2641-.2487.2829.2674.2652zm-.5679-3.8282.319-.2413-.3189-.4217-.3191.4217zm-.0273.0361-.319-.2414-.0024.0033zm.7142.7539-.2794.2862.0002.0002zm.429.4182.0673.3943.7747-.1322-.5628-.5486zm-.5152.0708.0395.3981.0041-.0005zm-.0068.0007-.0395-.3981-.0022.0003zm-1.0283.0504-.0042.4h.0042zm-.3935-.0116-.3557-.1829-.2845.5533.6215.0292zm.1855-.3439-.3473-.1986-.0009.0017zm.5576-.8629-.3004-.2642-.0126.0143-.0111.0155zm.0048-.0054.3003.2641.0113-.0128.0102-.0138zm.0524-.0698.3188.2417.0026-.0036zm-58.52777-5.0746.35822-.178-.35711-.7188-.35889.7179zm-3.52018 7.0411-.35778-.1789-.2894.5789h.64718zm7.01845 0v.4h.6454l-.2872-.578zm-2.97692-8.4698h.4v-.1096l-.05583-.0943zm-1.07281.0136-.34605-.2006-.00636.011-.00566.0113zm-6.2336983 12.5187.3530993.1883.004965-.01zm.0218942.4034-.3337579.2204.000097.0002zm.3229401.2296-.113819.3834.001896.0006zm.426937-.0157-.139531-.3749-.001801.0007zm.305837-.2562.35343.1877.00515-.0104zm1.71254-3.4643v-.4h-.24848l-.1101.2227zm7.96808 0 .3576-.1793-.1106-.2207h-.247zm1.7324 3.4568.3659-.1617-.0039-.0089-.0044-.0086zm.7465.276-.1288-.3787-.0093.0031-.0092.0036zm.3462-.605.3792-.1273-.0089-.0265-.0125-.0251zm-6.27682-12.5562h-.4v.0944l.04222.0844zm21.83742 7.2264v.4h.0491l.0475-.0118zm.0027-.0007v-.4h-.049l-.0476.0119zm-.587 3.6804h.4v-1.057l-.6998.7922zm-.5946.5791-.2569-.3066-.0013.0012zm-1.4299.919.1734.3605zm-1.7112.5846.0868.3905zm-4.5663-.1942-.1223.3809zm-2.1798-1.1037.2403-.3197-.0001-.0001zm-1.4772-1.6507-.348.1973.0004.0006zm.0013-7.1761-.3476-.1979-.0001.0002zm1.4793-1.6514-.24-.32-.0002.0001zm2.1839-1.1024-.1221-.3809-.0001.0001zm4.9399-.0872-.1089.3849.0004.0001zm1.9979.8564.2085-.3413-.0005-.0003zm1.5271 1.3026.3076-.2557-.0001-.0001zm.871 1.6556.3918-.0803-.0023-.0115-.003-.0113zm-.0582.3522-.3302-.2258-.0006.001zm-.3948.2228.0422.3978.0152-.0017.0152-.0027zm-.7109-.3856.3915-.0823-.002-.0095-.0025-.0094zm-.6944-1.3285-.3081.2551.0004.0004zm-1.2555-1.0703.2074-.342-.0005-.0003zm-1.6619-.7059.1071-.3853-.0005-.0002zm-4.1497.0818-.1232-.3805-.0004.0001zm-1.8035.9129-.2404-.3196-.0003.0001zm-1.2035 1.3442.3472.1986.0001-.0001zm0 6.383.3475-.1982-.0003-.0004zm1.2035 1.3442-.2405.3196.0001.0001zm1.8035.9123-.1232.3805.0002.0001zm4.4384 0 .1231.3806.0002-.0001zm1.8035-.9123.2403.3198.0002-.0001zm1.2042-1.3442.3473.1986v-.0002zm.4311-1.4593.3995.0202.0212-.4202h-.4207zm13.142-.0313.1248.38.09-.0296.0672-.0668zm-7.3045.3147h-.4v.4h.4zm0-7.7987v-.4h-.4v.4zm7.3065.3066.1216-.3811zm1.6777.8441.2401-.3199-.0002-.0002zm1.1152 1.2454-.3482.1968.0002.0003zm0 2.9874-.3479-.1974-.0001.0002zm-1.1152 1.2461.24.32.0003-.0003zm-1.679.8537-.1248-.3801-.0901.0296-.0672.0668zm.4351-8.0611-.1251.38zm2.0266 1.037-.2405.3196.0296.0223.0332.0164zm-10.9157-.9293.4.0008v-.0008zm-.0253 12.5248-.4-.0008v.0008zm1.1748-3.2967v-.4h-.4v.4zm6.5122-.0927.2986-.2661-.144-.1616-.2141.0322zm3.2636 3.662.2999-.2648-.0013-.0014zm.7519.1464.1002.3873.0192-.005.0187-.0069zm.0315-.0115.1381.3753.0125-.0046.0123-.0054zm.273-.3366.3968.0503.0006-.005zm-.117-.3645.3121-.2501-.0067-.0084-.0072-.008zm-3.0037-3.3615-.1221-.3809-.5865.1882.4104.4592zm1.378-.5995.1974.3479.0002-.0001zm1.3588-1.0519-.2916-.2739-.0002.0003zm.8922-1.3211.364.1659v-.0001zm-.1847-3.4309-.3457.2012zm-1.3882-1.5364.2404-.3196-.0296-.0223-.0332-.0164zm46.1085 4.8345v.4h.4v-.4zm-11.3241 0h-.4v.4h.4zm0 .9586v-.4h-.4v.4zm11.3241 0h.4v-.4h-.4zm5.8341-6.2529v-.4h-.4v.4zm0 5.295h-.4v.4h.4zm0 .9579v-.4h-.4v.4zm0 5.3127h-.4v.4h.4zm30.6602-12.3219-.302-.2625-.006.0071zm.65-.1764h.4v-.3223l-.315-.0686zm-7.451 8.373-.308.2555.308.3709.308-.3709zm-6.81-8.2054.307-.2555-.009-.0117-.011-.0109zm-.018-.0184.287-.2781-.013-.0139-.015-.0125zm-.6-.1506.065.3947.022-.0037.021-.006zm.727 2.0071.308-.2555-.708-.8524v1.1079zm6.218 7.4887-.308.2557.008.0089zm.95-.0115-.307-.2562-.011.0135-.01.0145zm6.235-7.4786h.4v-1.1045l-.708.8484zm.749-2.0037h-.4v.3419l.338.0533zm15.453 1.6904.358-.178-.357-.7188-.359.7179zm-3.52 7.0411-.358-.1789-.289.5789h.647zm7.018 0v.4h.646l-.287-.578zm-2.976-8.4698.358-.1789-.006-.0127-.008-.0123zm6.277 12.5575-.358.1789.111.2211h.247zm-7.35-12.5439-.346-.2006-.006.011-.006.0113zm-6.233 12.5187.352.1897.006-.0114zm.022.4034.333-.2207v-.0002zm.322.2296-.113.3834.001.0004zm.427-.0157-.14-.3747v.0003zm.306-.2562.354.1877.005-.0104zm1.713-3.4643v-.4h-.248l-.11.2226zm7.968 0 .357-.1794-.11-.2206h-.247zm1.734 3.4568.366-.1617-.004-.0089-.005-.0087zm.746.276-.129-.3787-.009.0032-.009.0036zm.346-.6044.379-.1275-.091-.2725h-.288zm-45.959 4.1473c-.314-.1808-.713-.1812-1.026.0004l.4.6924c.066-.0379.16-.0382.226.0003zm-.6.3459v.0007h.8v-.0007zm1.124.5464c0-.3731-.198-.7057-.525-.8934l-.398.6939c.086.0494.123.1215.123.1995zm-.514.8869c.32-.1841.514-.5174.514-.8869h-.8c0 .0815-.04.1515-.113.1936zm-14.4654 8.316 14.4654-8.3159-.399-.6935-14.4652 8.3158zm-.4732-.042.0773.0436.393-.6968-.0773-.0436zm-17.3199-9.958 17.317 9.9563.3988-.6935-17.317-9.9564zm-.2006-20.3461v19.9993h.8v-19.9993zm.2785-.3914-.0773.04428.3976.69422.0773-.0443zm17.3164-9.95607-17.3169 9.95639.3987.69358 17.317-9.95643zm.4749.043211-.078-.044284-.395.695686.078.044284zm14.3893 8.273319-14.3874-8.272243-.3988.693534 14.3872 8.272239zm.513.88703c0-.36796-.192-.70324-.514-.8874l-.397.69427c.071.04067.111.11007.111.19313zm-.514.8874c.322-.18416.514-.51945.514-.8874h-.8c0 .08306-.04.15246-.111.19312zm-1.033.00658c.313.17793.7.18485 1.034-.00682l-.399-.6938c-.086.04951-.171.04417-.239.00545zm-13.8309-7.95148 13.8299 7.95067.398-.69355-13.8291-7.95067zm-15.7332 9.27371 16.132-9.2737-.3987-.69357-16.132 9.27377zm.2007 18.2014v-18.5481h-.8v18.5481zm15.9313 8.9277-16.132-9.2745-.3987.6936 16.1319 9.2744zm13.4311-7.9507-13.8299 7.9507.3988.6935 13.8291-7.9507zm-37.0724-13.8025c.3129.3559.6001.7405.8613 1.1451l.6721-.4339c-.2807-.4348-.5914-.8514-.9326-1.2394zm.3011-.6641h-.0007v.8h.0007zm-2.7372-1.3429c.9277.5512 1.7475 1.2252 2.4372 2.0074l.6-.529c-.7472-.8475-1.6323-1.5742-2.6286-2.1662zm-.1967-.3766.0011.0431.7998-.0208-.0011-.043zm.0002.0058v.0003l.7994-.0329-.0001-.0003zm-.0026-.1448c0 .0495.0013.0974.0024.1391l.7997-.0215c-.0011-.0434-.0021-.0806-.0021-.1176zm0-.002v.002h.8v-.002zm.579-3.5247c-.3812 1.1177-.5762 2.3036-.579 3.5237l.8.0019c.0026-1.1358.184-2.2349.5362-3.2674zm.8035-1.77959c-.3244.56952-.594 1.16809-.8033 1.77909l.7568.2592c.193-.5635.442-1.11634.7416-1.64234zm.5791-.89913c-.2084.28793-.4023.58959-.5789.8987l.6947.39681c.1628-.28498.3411-.56241.5322-.82633zm.0136-.01784-.0048.00613.6304.4926.0048-.00613zm.7962-.93479c-.3555.34971-.6186.69239-.8035.94447l.645.47324c.175-.23846.4087-.54164.7195-.84733zm.7809-.76669-.7806.76645.5604.57086.7807-.76645zm.6803 11.37544v-11.09001h-.8v11.09001zm-2.3388 1.1334-.0006-.0013-.7094.3699.0007.0013zm.1793.3326c-.0615-.1082-.1198-.2176-.1786-.3314l-.7106.3675c.0615.119.1251.2385.1936.3591zm.5328.8227c-.1913-.2634-.3711-.5416-.5339-.8246l-.6934.399c.1765.3068.3716.6088.5799.8957zm.0083.0117-.0048-.0068-.6544.4603.0048.0068zm.0701.092c-.0254-.033-.053-.0696-.0778-.1025l-.639.4813c.0245.0325.0543.0721.0823.1086zm.0902-.8318c-.3102.303-.5474.5966-.7269.8348l.6389.4814c.1654-.2194.3756-.4788.647-.7438zm.4299-.4191-.4296.4189.5584.5728.4297-.4188zm-.2802.6139c.1457.016.3113.0361.4924.0669l.1341-.7887c-.2034-.0346-.3867-.0567-.5394-.0734zm-.0414-.0067.0068.0014.1563-.7846-.0068-.0014zm-.9009-.0427c.3111 0 .6266.0164.9382.0483l.0817-.7958c-.3384-.0347-.6811-.0525-1.0199-.0525zm-.0002 0h.0002v-.8h-.0002zm-.0248.0001.0264-.0001-.0032-.8-.0263.0002zm-.0103.0003c.0038-.0001.0081-.0002.0133-.0003l-.0091-.7999c-.0104.0001-.0222.0003-.0349.0008zm-.3906.0116c.1318-.0055.2552-.0106.3773-.0113l-.0042-.8c-.1392.0008-.2771.0066-.4067.012zm-.4168-.401v.0013h.8v-.0013zm.4168.3996h.0007l-.0351-.7992h-.0007zm-.9836-1.6372c.1666.4857.3721.962.6112 1.4221l.7098-.3689c-.2214-.4262-.411-.866-.5643-1.3128zm-.5696-3.3525c.017 1.1551.2056 2.282.5693 3.3515l.7574-.2576c-.3356-.9866-.511-2.0303-.5268-3.1057zm.1701.3227.0241.0144.4114-.6861-.024-.0144zm-.0336-.0204.0318.0193.4151-.6839-.0318-.0193zm-.0022-.0014.0001.0001.4193-.6813-.0001-.0001zm-.0002-.0001.0002.0001.4193-.6813-.0002-.0001zm-.0001-.0001.0001.0001.4193-.6813-.0001-.0001zm-.0807-.0481c.0255.0146.0514.0303.0824.0492l.4158-.6834c-.0295-.018-.0643-.0392-.1005-.06zm-.0844-.0646.0014.0013.5637-.5676-.0014-.0014zm-3.0286-1.1076c1.0755.2128 2.1227.6066 3.1122 1.1712l.3965-.6949c-1.0617-.6058-2.1902-1.0309-3.3534-1.261zm-1.8012-.1824c.6091.0052 1.2152.0668 1.8014.1825l.1549-.7849c-.6357-.1255-1.2913-.192-1.9494-.1976zm-.0615 0h.065v-.8h-.065zm-.9222.0457c.3063-.0301.6162-.0457.9222-.0457v-.8c-.3331 0-.6691.017-1.0004.0496zm-.0143.0013.0082-.0007-.0661-.7973-.0082.0007zm-1.0858.1968c.4195-.1155.8005-.1653 1.0966-.1979l-.0876-.7952c-.3101.0342-.7406.0894-1.2215.2218zm-1.0584.2897 1.0578-.2895-.2113-.7716-1.0577.2895zm.5584.5687-.2771-1.056-.7738.2031.2771 1.056zm.3756 1.0445c-.1198-.2703-.2664-.6234-.3753-1.0434l-.7744.2009c.125.482.2918.8811.4183 1.1666zm.0016.0034-.0034-.0075-.7278.3323.0035.0075zm.4533.873c-.1662-.2816-.3177-.574-.4529-.8721l-.7285.3305c.1466.3233.3113.6413.4926.9484zm1.058 1.4596c-.3938-.447-.7504-.9381-1.0578-1.4594l-.6891.4064c.333.5647.7194 1.0968 1.1466 1.5818zm2.5741 2.0984c-.9868-.5712-1.8524-1.2776-2.5739-2.0981l-.6007.5283c.7809.8881 1.7148 1.6492 2.7738 2.2621zm-.021-.0113-.0013-.0007-.3562.7163.0014.0007zm.1387.0754c-.0431-.0231-.0816-.0438-.1199-.0655l-.3936.6965c.047.0265.0929.0512.1349.0738zm.0239.0129-.0238-.0128-.3788.7046.0238.0128zm2.8137-1.1806c-1.1106.2204-2.185.6202-3.1975 1.1833l.3888.6992c.9428-.5243 1.9388-.8943 2.9643-1.0978zm1.5445-.185c-.5197.0234-1.0377.0842-1.5447.1851l.156.7846c.4654-.0925.9432-.1489 1.4246-.1705zm.0006 3.4378h.0003l.0355-.7992h-.0003zm-.3374-.5836-.0004.0006.711.3667.0004-.0006zm.7555.184v-.0007h-.8v.0007zm-.61 1.4982c.1533-.4482.3429-.888.5644-1.3135l-.7096-.3694c-.2393.4598-.445.9365-.6117 1.4239zm-.5265 3.1043c.0158-1.0759.1919-2.1197.5268-3.1051l-.7575-.2574c-.3629 1.068-.5522 2.1948-.5692 3.3508zm-.2149.3496.0208-.0125-.4117-.6859-.0207.0124zm-.0315.0192.0338-.0206-.4162-.6832-.0338.0206zm-.0024.0014h.0001l-.4116-.686h-.0001zm-.1021.0608c.0387-.0219.0752-.0443.105-.0625l-.4173-.6825c-.0316.0192-.0565.0344-.0814.0485zm-.0209.011.0013-.0007-.3545-.7171-.0014.0006zm-3.3325 1.2506c1.1631-.2301 2.2917-.6545 3.3538-1.262l-.3972-.6944c-.9892.5657-2.0363.9588-3.1119 1.1716zm-1.9475.1977c.6564-.0057 1.3115-.0715 1.9477-.1978l-.1557-.7847c-.5858.1163-1.191.1772-1.7989.1825zm-.0698 0h.0663v-.8h-.0663zm-1.0021-.0505c.333.0342.6696.0505 1.0021.0505v-.8c-.3066 0-.6159-.0151-.9205-.0463zm-.0005 0 .0082.0007.0661-.7972-.0082-.0007zm-1.2316-.2219c.4803.1315.9103.1874 1.2218.221l.0858-.7954c-.2948-.0318-.6762-.0822-1.0963-.1972zm-1.0577-.2896 1.0577.2896.2112-.7716-1.0577-.2896zm-.0042-1.5439-.2771 1.0567.7738.2029.2771-1.0567zm.4181-1.1653c-.1271.2863-.292.6851-.4181 1.1651l.7737.2033c.1106-.4208.2564-.7754.3756-1.0437zm.0051-.0111-.0035.0075.7279.3319.0035-.0075zm.4906-.9464c-.1799.3056-.3444.6241-.4909.9471l.7285.3305c.1353-.2983.2869-.5916.4519-.8719zm1.1477-1.5838c-.4283.4854-.814 1.0184-1.1474 1.5833l.6889.4067c.3083-.5224.6643-1.0142 1.0584-1.4607zm2.7734-2.2617c-1.0589.6129-1.9928 1.3733-2.7739 2.2623l.6009.5281c.7214-.8211 1.5869-1.5268 2.5738-2.098zm.0241-.0128-.0014.0006.3554.7168.0013-.0007zm.1356-.075c-.0425.0235-.1028.0557-.1548.0851l.3937.6965c.0493-.0279.0889-.0488.1476-.0812zm3.3529 1.0991c-1.0265-.2042-2.0225-.5736-2.9651-1.0984l-.3891.699c1.0128.5639 2.0872.963 3.1981 1.184zm1.4248.1705c-.4823-.0223-.9603-.078-1.4247-.1705l-.1563.7846c.507.1009 1.025.161 1.544.185zm-.9502 5.3408c.9962-.592 1.8814-1.3187 2.6292-2.1668l-.6-.5291c-.6904.7829-1.5102 1.4569-2.4379 2.0081zm.1939-.2606c.0006-.0237.0014-.0509.0017-.0785l-.7999-.0096c-.0003.0204-.0009.0415-.0015.0662zm.0001-.0108v-.0001h-.8v.0001zm0 .0002v-.0002h-.8v.0002zm0 .0002v-.0002h-.8v.0002zm0 .0001v-.0001h-.8v.0001zm0 .0002v-.0002h-.8v.0002zm0 .0001v-.0001h-.8v.0001zm-.0018.0984c0-.0266.0007-.0538.0017-.0873l-.7997-.0221c-.0009.0317-.002.07-.002.1094zm0 .0014v-.0014h-.8v.0014zm.5362 3.2665c-.3515-1.0318-.5329-2.1317-.5362-3.2677l-.8.0023c.0035 1.22.1984 2.4064.579 3.5234zm.7421 1.643c-.3002-.5265-.5492-1.0799-.7423-1.6436l-.7568.2592c.2092.6109.4789 1.2102.8041 1.7806zm.5316.8251c-.1914-.2651-.3706-.5434-.5319-.8256l-.6945.3972c.1753.3065.3697.6086.5779.8968zm.0077.0109-.0048-.0068-.6544.4602.0048.0068zm.7142.8388c-.3104-.304-.5446-.6076-.7187-.8452l-.6453.4729c.1844.2516.4483.5953.8042.9439zm.7812.7676-.7807-.7671-.5607.5706.7806.7671zm-.6804-10.8047v11.09h.8v-11.09zm-.1959 1.4556c.34-.3868.6524-.8028.9326-1.2397l-.6734-.4319c-.259.4039-.5473.7877-.86 1.1435zm-.0181-.5474-.0006-.0007-.5634.5681.0007.0007zm-1.1692-3.7861-.0272.036.6379.4827.0273-.036zm1.2854.7451c-.2709-.2646-.4804-.5245-.6474-.7451l-.638.4826c.1793.237.4158.5315.7265.8349zm.4287.4179-.4289-.4181-.5585.5728.429.4182zm-.7508.7549c.1539-.0168.3368-.0396.5389-.0741l-.1345-.7886c-.1811.0309-.3471.0516-.4915.0675zm-.0109.0011.0068-.0007-.0789-.796-.0069.0006zm-1.0186.0524c.3383 0 .6813-.017 1.0208-.0526l-.0834-.7956c-.3105.0325-.6256.0482-.9374.0482zm-.0492 0h.0492v-.8h-.0492zm-.4122-.012c.1349.0063.2711.0105.408.012l.0083-.8c-.1259-.0013-.2523-.0052-.3788-.0112zm-.144-.9404c-.0671.1186-.1312.2376-.193.3579l.7115.3658c.0572-.1113.1163-.221.1778-.3299zm.5817-.9004c-.2084.2881-.4044.5902-.5808.8987l.6945.3971c.1616-.2826.3419-.5608.5345-.827zm.0285-.0352-.0048.0054.6007.5284.0048-.0055zm.0341-.0472c-.0177.0233-.0375.0493-.0556.0738l.6437.4751c.0145-.0196.0309-.0412.0493-.0656zm-.0024.0031-.0003.0004.6428.4762.0004-.0004zm-58.56445-5.015-3.52018 7.0411.71556.3578 3.52017-7.0412zm4.21425 7.042-3.49825-7.0411-.71645.3559 3.49829 7.0412zm-7.37665.578h7.01845v-.8h-7.01845zm3.52086-8.7573c.0932 0 .14271.0343.17651.0913l.68833-.4077c-.18652-.3149-.50648-.4836-.86484-.4836zm-.2061.1017c.03538-.061.08911-.1017.2061-.1017v-.8c-.36878 0-.70368.165-.89819.5005zm-6.221674 12.4964 6.233694-12.5187-.71613-.3566-6.233692 12.5187zm-.002412.0046c-.003578-.0054-.004433-.0081-.004325-.0078.000144.0004.000828.0027.00103.0064.000204.0037-.000189.0069-.000662.009-.000454.002-.000598.0012.001268-.0023l-.705926-.3764c-.14181.266-.121146.5664.041099.812zm.102999.0666c-.062359-.0185-.088009-.0439-.103096-.0667l-.667322.4412c.129962.1965.3205176.3265.542783.3924zm.171788-.0064c-.055466.0209-.114278.0231-.173683.0058l-.223845.7681c.221115.0644.457874.0585.680191-.0255zm.093882-.0696c-.011164.0211-.030487.046-.09208.0689l.279059.7498c.220298-.082.404858-.2274.519588-.4435zm1.707247-3.454-1.712543 3.4644.717163.3545 1.71254-3.4644zm8.32666-.2227h-7.96808v.8h7.96808zm2.09 3.6776-1.7324-3.4569-.7152.3585 1.7324 3.4568zm.1747.0885c-.1305 0-.1548-.0447-.1664-.071l-.7317.3235c.1649.3729.5182.5475.8981.5475zm.0669-.0053c.005-.0019.0024-.0002-.0105.0017-.0124.002-.0311.0036-.0564.0036v.8c.1135 0 .2415-.0139.3614-.0614zm.1143-.1058c.0076.0228.0072.0347.007.0374-.0001.002-.0002.0015-.0002.0016-.0004.0006-.0045.0078-.0194.019-.0152.0115-.0415.0269-.0832.0411l.2576.7573c.2196-.0746.4198-.2108.5397-.4207.1234-.2161.1335-.4619.0569-.6902zm-6.2554-12.5046 6.2768 12.5562.7156-.3577-6.27683-12.5562zm-.04222-.1795v.0007h.8v-.0007zm22.23742 6.8271h-4.1702v.8h4.1702zm-.0939.0112-.0027.0007.1932.7763.0028-.0007zm1.0844.8759c0-.2025-.0668-.4339-.2487-.6154-.185-.1845-.4434-.2724-.7391-.2724v.8c.1382 0 .1736.0383.1741.0387.0035.0035.0137.016.0137.0491zm0 5.0103v-5.0103h-.8v5.0103zm-.9878.8694c.3684 0 .6463-.127.8168-.3512.1547-.2034.171-.4233.171-.5182h-.8c0 .0033-.0005.012-.0029.0214-.0022.0088-.0046.0121-.0049.0125 0 .0001-.0005.0007-.0022.0021-.0016.0013-.0065.0048-.0166.0093-.0201.0088-.0682.0241-.1612.0241zm-.987-.8694c0 .0942.0159.3142.1704.5179.1704.2245.4483.3515.8166.3515v-.8c-.0929 0-.1409-.0153-.1609-.0241-.01-.0044-.0148-.0079-.0164-.0092-.0016-.0012-.002-.0018-.002-.0019-.0002-.0002-.0026-.0035-.0048-.0124-.0024-.0093-.0029-.0182-.0029-.0218zm0-1.8177v1.8177h.8v-1.8177zm.0624.8856c.2317-.1941.4444-.4023.6374-.6208l-.5996-.5296c-.1668.1889-.351.3691-.5517.5373zm-1.5135.973c.5553-.2671 1.0652-.5938 1.5148-.9741l-.5165-.6108c-.3947.3337-.8468.6242-1.3451.864zm-1.7978.6146c.6371-.1417 1.2425-.3475 1.7978-.6146l-.3468-.7209c-.4957.2384-1.0424.4251-1.6246.5545zm-2.0135.2139c.695 0 1.3728-.0716 2.0135-.2139l-.1735-.781c-.58.1288-1.1994.1949-1.84.1949zm-2.7619-.4177c.8675.2786 1.7971.4177 2.7619.4177v-.8c-.888 0-1.7345-.128-2.5173-.3794zm-2.2978-1.1648c.6613.497 1.4349.8876 2.2978 1.1648l.2446-.7617c-.7873-.2529-1.4793-.6049-2.0618-1.0426zm-1.5845-1.7726c.3855.6772.9202 1.2736 1.5845 1.7726l.4805-.6396c-.5837-.4384-1.0425-.9539-1.3698-1.5288zm-.5929-2.2227c0 .782.2007 1.5311.5925 2.2221l.6959-.3946c-.3252-.5736-.4884-1.1871-.4884-1.8275zm0-3.1265v3.1265h.8v-3.1265zm.5941-2.2225c-.3926.6903-.5941 1.4403-.5941 2.2225h.8c0-.6403.1638-1.2543.4895-1.827zm1.5868-1.7736c-.6655.4996-1.201 1.096-1.5867 1.7734l.6953.3958c.3272-.5747.7866-1.0902 1.3717-1.5294zm2.3019-1.1633c-.8651.2776-1.6408.6674-2.3017 1.1632l.48.6399c.5816-.4362 1.2755-.7876 2.0662-1.0414zm2.7666-.4177c-.9667 0-1.8977.139-2.7665.4176l.2443.7618c.7841-.2514 1.6321-.3794 2.5222-.3794zm2.4044.3264c-.7692-.2176-1.5798-.3264-2.4044-.3264v.8c.7546 0 1.4916.0996 2.1866.2962zm2.097.8997c-.629-.383-1.3355-.685-2.0974-.8998l-.217.77c.6982.1968 1.3368.4711 1.8983.8131zm1.6266 1.3884c-.4463-.5365-.9952-1.0027-1.6261-1.3881l-.4171.6827c.5623.3435 1.0425.7534 1.4282 1.217zm.95 1.8083c-.174-.6523-.4946-1.2604-.9499-1.8082l-.6152.5114c.3862.4647.6499.9699.7921 1.5029zm-.1145.6811c.1373-.2009.1656-.4349.1198-.6583l-.7837.1606c.0056.0273.004.0414.0034.0453-.0004.002-.0006.0024-.0004.0018.0003-.0006.0005-.001.0005-.001zm-.6524.3904c.2505-.0462.4963-.1608.653-.3914l-.6616-.4496c-.0006.0008-.005.0076-.0229.0177-.0195.011-.0549.0257-.1136.0365zm-.2149.0161c.0591 0 .1149-.0044.1845-.0117l-.0843-.7956c-.0591.0063-.0826.0073-.1002.0073zm-.96-.7128c.101.4801.5205.7128.96.7128v-.8c-.0887 0-.1335-.0215-.1504-.0333-.0123-.0085-.0213-.0185-.0267-.0441zm-.6107-1.1553c.3016.3632.5071.7608.6152 1.1742l.7739-.2024c-.1395-.5337-.4021-1.0354-.7737-1.4829zm-1.1553-.9839c.4568.2771.8448.6089 1.1549.9835l.6162-.5102c-.3714-.4485-.829-.8375-1.3562-1.1572zm-1.5616-.6624c.5756.1601 1.1013.3841 1.5621.6627l.4139-.6845c-.5284-.3196-1.1221-.5711-1.7617-.7489zm-1.8229-.2388c.6396 0 1.2522.0809 1.8234.239l.2133-.7711c-.6452-.1785-1.3298-.2679-2.0367-.2679zm-2.0963.3157c.6444-.2087 1.3489-.3157 2.0963-.3157v-.8c-.8236 0-1.612.1179-2.3428.3547zm-1.6864.8521c.4691-.3528 1.0352-.6405 1.6868-.8522l-.2473-.7608c-.7237.2352-1.3713.5607-1.9203.9737zm-1.0966 1.223c.263-.46.631-.8723 1.0969-1.2232l-.4814-.639c-.5453.4108-.9888.9033-1.31 1.4652zm-.3831 1.4298c0-.5049.1283-.9844.383-1.4297l-.6944-.3972c-.3228.5644-.4886 1.1805-.4886 1.8269zm0 3.1264v-3.1264h-.8v3.1264zm.383 1.4297c-.2547-.4453-.383-.9247-.383-1.4297h-.8c0 .6465.1658 1.2626.4886 1.8269zm1.0968 1.2232c-.4672-.3516-.8343-.763-1.0965-1.2228l-.6949.3964c.3206.5622.7636 1.0541 1.3104 1.4656zm1.6863.8513c-.6512-.211-1.2173-.4985-1.6864-.8513l-.4808.6393c.549.4129 1.1967.7385 1.9207.9731zm2.0963.3158c-.7479 0-1.4525-.1076-2.0965-.3158l-.2461.7612c.7299.236 1.5181.3546 2.3426.3546zm2.0958-.3158c-.6441.2082-1.348.3158-2.0958.3158v.8c.8244 0 1.612-.1187 2.3419-.3546zm1.6863-.8515c-.47.353-1.0355.6406-1.6866.8515l.2466.7611c.7241-.2346 1.371-.5602 1.9205-.973zm1.0972-1.2229c-.2631.46-.631.8722-1.0974 1.2231l.4809.6393c.5462-.4109.9897-.9034 1.311-1.4653zm.3788-1.281c-.0228.4497-.1493.8793-.3789 1.2811l.6946.3968c.2905-.5084.454-1.0598.4833-1.6375zm-3.1796.4202h3.5791v-.8h-3.5791zm-.9993-.8708c0 .096.0168.3173.1746.5214.1729.2237.4532.3494.8247.3494v-.8c-.0964 0-.1474-.0156-.1697-.0253-.0112-.0048-.0168-.0088-.019-.0105s-.0029-.0026-.003-.0028c-.0029-.0037-.0076-.0178-.0076-.0322zm.9993-.8878c-.2469 0-.4969.0594-.6929.2189-.2068.1683-.3064.4099-.3064.6689h.8c0-.0273.0049-.0395.006-.042.0008-.0018.0014-.0032.0053-.0063.0097-.0079.0594-.0395.188-.0395zm14.6781 2.042c.7575 0 1.4875-.1114 2.1678-.3347l-.2496-.7601c-.5938.195-1.239.2948-1.9182.2948zm-5.2615 0h5.2615v-.8h-5.2615zm-.4-8.1987v7.7987h.8v-7.7987zm5.6615-.4h-5.2615v.8h5.2615zm2.1666.3255c-.6805-.2172-1.4101-.3255-2.1666-.3255v.8c.6803 0 1.3273.0974 1.9234.2876zm1.796.9051c-.5161-.3869-1.1203-.6895-1.796-.9051l-.2432.7621c.601.1918 1.123.456 1.5593.7831zm1.2235 1.3687c-.2966-.5249-.7109-.9838-1.2233-1.3685l-.4803.6398c.4331.3251.7701.7028 1.0072 1.1223zm.45 1.6902c0-.5945-.152-1.1644-.4502-1.6906l-.696.3943c.2314.4086.3462.8429.3462 1.2963zm-.4503 1.6914c.2983-.5258.4503-1.0965.4503-1.6914h-.8c0 .4542-.1149.8891-.3461 1.2966zm-1.2228 1.3684c.5118-.3848.9258-.8443 1.2229-1.3686l-.696-.3944c-.238.42-.5752.7985-1.0076 1.1236zm-1.7946.914c.673-.221 1.2782-.5266 1.7943-.9137l-.48-.64c-.4378.3283-.9629.5963-1.5638.7936zm.1566-.0957.0007-.0007-.5641-.5673-.0007.0007zm.0287-7.9654c.7286.2399 1.3702.5696 1.9112.9766l.481-.6393c-.6181-.465-1.3394-.8329-2.142-1.0972zm-2.3537-.3601c.8385 0 1.6299.1218 2.3537.3601l.2502-.7599c-.8116-.2672-1.6882-.4002-2.6039-.4002zm-5.8362 0h5.8362v-.8h-5.8362zm-.1741.0878c0-.0358.0111-.0494.014-.0524.002-.0021.0097-.0095.0308-.0173.0222-.0082.0628-.0181.1293-.0181v-.8c-.2933 0-.5494.0895-.7316.2756-.1782.182-.2425.4122-.2425.6122zm-.0253 12.5256.0253-12.5248-.8-.0016-.0253 12.5248zm.1754.0687c-.0685 0-.1112-.0099-.135-.0183-.0228-.0082-.0307-.0158-.0319-.017-.0003-.0003-.0085-.0073-.0085-.0342h-.8c0 .2001.0672.4277.2483.6054.1834.1798.4379.2641.7271.2641zm.1994-.0695c0 .0144-.0047.0278-.0072.031-.0001.0001-.0007.001-.0029.0027s-.0078.0057-.019.0105c-.0225.0096-.0737.0253-.1703.0253v.8c.371 0 .6513-.125.8244-.3482.1581-.204.175-.4252.175-.5213zm0-3.2967v3.2967h.8v-3.2967zm5.6614-.4h-5.2614v.8h5.2614zm1.1913-.0882c-.3839.0576-.7842.0882-1.1913.0882v.8c.4468 0 .8868-.0335 1.3102-.0971zm3.6217 3.7913-3.2636-3.6619-.5973.5322 3.2636 3.662zm.1714.0631c-.0956 0-.1422-.03-.1702-.0616l-.5997.5294c.2006.2272.4783.3322.7699.3322zm.1817-.0377c-.08.0207-.1267.0301-.1534.0344-.0127.0021-.0199.0028-.023.003-.0027.0002-.0038.0003-.0053.0003v.8c.0924 0 .195-.0148.3821-.0632zm-.0065.0003-.0314.0115.2762.7508.0315-.0116zm.0143-.0115c.0001-.0004.0004-.0019.0011-.0036.0008-.0018.0013-.0022.0005-.0012-.0015.0019-.0117.0134-.0406.0263l.3258.7307c.2607-.1163.4677-.3426.5069-.6516zm-.0323-.0641c.0214.0267.0281.0434.0302.0501.0018.0056.0025.0105.0015.019l.7949.0906c.0281-.2466-.051-.4711-.2023-.6599zm-2.9897-3.3451 3.0036 3.3615.5965-.533-3.0036-3.3615zm1.4788-1.2139c-.4009.2275-.8387.4177-1.3027.5665l.2443.7618c.5131-.1646 1.0017-.3763 1.4532-.6325zm1.2644-.9776c-.3424.3653-.7666.6948-1.2646.9777l.3952.6956c.5598-.318 1.0496-.6957 1.4531-1.1262zm.82-1.2133c-.1988.4364-.4735.8444-.8198 1.213l.5832.5477c.4036-.4298.7283-.9102.9646-1.429zm.2958-1.3616c0 .4721-.0992.9299-.2958 1.3616l.728.3316c.244-.5357.3678-1.1066.3678-1.6932zm-.4622-1.7023c.3076.5282.4622 1.0993.4622 1.7023h.8c0-.7459-.1929-1.4557-.5709-2.1048zm-1.283-1.4179c.5434.4088.9734.8861 1.283 1.4179l.6914-.4025c-.3678-.6318-.8724-1.1874-1.4935-1.6547zm.0614.038.0014.0007.3553-.7167-.0013-.0007zm6.1664-2.1754c-.2932 0-.5493.0895-.7316.2756-.1782.182-.2424.4122-.2424.6122h.8c0-.0358.011-.0494.014-.0524.002-.0021.0096-.0095.0307-.0173.0222-.0082.0629-.0181.1293-.0181zm1.0008.8878c0-.2591-.0996-.5008-.3068-.6691-.1963-.1595-.4466-.2187-.694-.2187v.8c.1297 0 .1798.0317.1896.0396.0038.0032.0044.0045.0052.0062.0011.0025.006.0146.006.042zm0 12.5248v-12.5248h-.8v12.5248zm-1.0008.8695c.3712 0 .6516-.1249.825-.3478.1585-.2037.1758-.425.1758-.5217h-.8c0 .0137-.0047.0272-.0073.0305-.0001.0002-.0008.0012-.0031.0029-.0023.0018-.008.0058-.0193.0107-.0228.0097-.0742.0254-.1711.0254zm-.974-.8695c0 .2005.0675.4279.2482.6053.1831.1796.4371.2642.7258.2642v-.8c-.0678 0-.11-.0098-.1336-.0182-.0225-.0081-.0304-.0156-.0317-.0169-.0006-.0006-.0087-.0079-.0087-.0344zm0-12.5248v12.5248h.8v-12.5248zm41.4952-.0007c0-.0322.0099-.0445.0136-.0481.0009-.0009.0369-.039.1748-.039v-.8c-.2952 0-.5534.0875-.7385.2713-.1822.181-.2499.4123-.2499.6158zm0 5.7651v-5.7651h-.8v5.7651zm-11.7241.4h11.3241v-.8h-11.3241zm-.4-6.1651v5.7651h.8v-5.7651zm-.1994-.0871c.129 0 .1788.0315.1884.0393.0038.0031.0043.0044.005.006.0011.0024.006.0144.006.0418h.8c0-.2591-.0996-.5007-.3067-.6688-.1961-.1593-.446-.2183-.6927-.2183zm-.1747.0878c0-.0353.0109-.049.0141-.0522.0021-.0021.0099-.0096.0311-.0175.0223-.0082.0631-.0181.1295-.0181v-.8c-.2932 0-.5493.0895-.7317.2753-.1783.1818-.243.4121-.243.6125zm0 12.5248v-12.5248h-.8v12.5248zm.1747.0695c-.068 0-.1104-.0098-.1341-.0183-.0227-.0081-.0306-.0157-.032-.017-.0006-.0005-.0086-.0077-.0086-.0342h-.8c0 .2005.0676.428.2485.6054.1831.1796.4373.2641.7262.2641zm.1994-.0695c0 .0144-.0047.0278-.0072.031-.0001.0001-.0008.001-.0029.0027-.0022.0017-.0078.0057-.019.0105-.0225.0096-.0737.0253-.1703.0253v.8c.371 0 .6513-.125.8244-.3482.1581-.204.175-.4252.175-.5213zm0-5.8018v5.8018h.8v-5.8018zm11.7241-.4h-11.3241v.8h11.3241zm.4 6.2018v-5.8018h-.8v5.8018zm.1884.0695c-.0931 0-.1415-.0154-.1618-.0242-.0101-.0045-.015-.0081-.0167-.0094s-.0022-.002-.0022-.0021c-.0003-.0004-.0027-.0037-.0049-.0124-.0024-.0093-.0028-.018-.0028-.0214h-.8c0 .095.0162.315.1712.5185.1707.2241.4486.351.8172.351zm.1863-.0695c0 .0034-.0004.0122-.0028.0216-.0023.0089-.0047.0123-.005.0127-.0001.0001-.0005.0007-.0021.002s-.0064.0048-.0163.0092c-.0199.0087-.0677.024-.1601.024v.8c.3681 0 .6456-.1273.8158-.3515.1543-.2034.1705-.4231.1705-.518zm0-12.5248v12.5248h.8v-12.5248zm-.1863-.0878c.1371 0 .1721.038.1726.0384.0035.0035.0137.0162.0137.0494h.8c0-.2025-.0667-.4338-.2482-.6152-.1847-.1846-.4428-.2726-.7381-.2726zm17.1449.9579c.289 0 .543-.0844.726-.264.181-.1775.249-.4051.249-.6061h-.8c0 .0266-.008.0339-.009.0346-.001.0014-.009.0091-.032.0172-.024.0085-.066.0183-.134.0183zm-11.8992 0h11.8992v-.8h-11.8992zm.4 4.895v-5.295h-.8v5.295zm9.4202-.4h-9.8202v.8h9.8202zm.975.8782c0-.2003-.066-.4292-.246-.6088-.182-.1826-.438-.2694-.729-.2694v.8c.068 0 .109.0098.132.0182.023.008.03.0156.032.0173.002.0019.011.0121.011.0427zm-.975.8797c.291 0 .546-.087.729-.2698.18-.1797.246-.4089.246-.6099h-.8c0 .0314-.009.042-.011.0441-.002.0017-.01.0093-.032.0173-.023.0084-.065.0183-.132.0183zm-9.8202 0h9.8202v-.8h-9.8202zm.4 4.9127v-5.3127h-.8v5.3127zm11.4992-.4h-11.8992v.8h11.8992zm.975.8891c0-.2004-.064-.431-.243-.6131-.182-.1863-.439-.276-.732-.276v.8c.066 0 .107.0099.129.0182.022.0079.029.0154.032.0176.003.0034.014.0174.014.0533zm-.975.8695c.289 0 .543-.0845.726-.2638.181-.1772.249-.4047.249-.6057h-.8c0 .026-.008.0332-.009.034-.001.0014-.009.0091-.032.0172-.024.0085-.066.0183-.134.0183zm-12.4992 0h12.4992v-.8h-12.4992zm-.9754-.8695c0 .2005.0676.4281.2486.6055.1833.1796.4377.264.7268.264v-.8c-.0683 0-.1109-.0098-.1347-.0183-.0229-.0082-.0308-.0158-.0322-.0171-.0005-.0005-.0085-.0077-.0085-.0341zm0-12.5248v12.5248h.8v-12.5248zm.9754-.8878c-.2934 0-.5497.0894-.7322.2752-.1785.1818-.2432.4122-.2432.6126h.8c0-.0353.0109-.0489.014-.052.0021-.0022.0099-.0097.0313-.0176.0224-.0083.0634-.0182.1301-.0182zm12.4992 0h-12.4992v.8h12.4992zm.975.8878c0-.2004-.065-.4308-.243-.6126-.183-.1858-.439-.2752-.732-.2752v.8c.066 0 .107.0099.13.0182.021.0079.029.0154.031.0176.003.0031.014.0167.014.052zm18.088-.0238c.032-.0374.102-.0831.263-.048l.17-.7817c-.377-.082-.77-.0024-1.037.3049zm-6.795 8.1897 6.801-8.1967-.616-.5108-6.801 8.1966zm-7.426-8.2055 6.81 8.2055.616-.5109-6.811-8.2055zm.002.0043.018.0183.575-.5561-.018-.0184zm-.153-.0491c.055 0 .113.0173.181.0754l.519-.6089c-.197-.168-.435-.2665-.7-.2665zm-.051.0054c.002-.0004.008-.002.019-.0033.01-.0014.021-.0021.032-.0021v-.8c-.087 0-.182.0112-.268.0355zm-.156.0796c0-.0154.003-.0226.003-.0243.001-.0015.002-.0027.004-.005.004-.0045.031-.0282.106-.0406l-.13-.7894c-.206.0339-.403.1199-.552.2749-.154.1591-.231.3653-.231.5844zm0 12.5249v-12.5249h-.8v12.5249zm.174.0694c-.067 0-.11-.0097-.133-.0182-.023-.008-.031-.0156-.032-.0169-.001-.0006-.009-.0078-.009-.0343h-.8c0 .2004.068.4279.249.6052.183.1797.437.2642.725.2642zm.201-.0694c0 .0137-.005.0271-.007.0305 0 .0002-.001.0011-.003.0029-.003.0017-.008.0058-.02.0106-.022.0098-.074.0254-.171.0254v.8c.371 0 .652-.1248.825-.3477.159-.2038.176-.425.176-.5217zm0-10.9824v10.9824h.8v-10.9824zm6.926 7.2332-6.218-7.4887-.616.511 6.218 7.4888zm.175.0524c-.11 0-.159-.0344-.183-.0615l-.6.5292c.203.2305.489.3323.783.3323zm.139-.0366c-.001.0007-.005.007-.017.0139-.011.0062-.046.0227-.122.0227v.8c.426 0 .674-.2051.796-.3802zm6.255-7.5065-6.234 7.4785.615.5123 6.234-7.4785zm.708 11.2399v-10.9838h-.8v10.9838zm.187.0694c-.093 0-.141-.0153-.161-.0241-.01-.0044-.015-.0079-.017-.0091-.001-.0013-.002-.0019-.002-.0019 0-.0003-.002-.0036-.004-.0124-.003-.0094-.003-.0182-.003-.0219h-.8c0 .0943.016.3143.17.5179.17.2245.448.3515.817.3515zm.187-.0694c0 .0033 0 .0121-.002.0214-.003.0088-.005.0122-.005.0125 0 .0001-.001.0008-.002.0021-.002.0013-.007.0049-.017.0093-.02.0088-.068.0241-.161.0241v.8c.368 0 .646-.127.816-.3511.155-.2035.171-.4234.171-.5183zm0-12.5249v12.5249h.8v-12.5249zm-.087-.0674c.054.0086.074.027.078.0315.003.0027.004.0052.006.0088.001.0036.003.012.003.0271h.8c0-.4673-.337-.7905-.763-.8577zm-.338-.3958v.0006h.8v-.0006zm4.884-.4252c-.293 0-.55.0894-.732.2755-.178.182-.243.4123-.243.6123h.8c0-.0358.011-.0493.014-.0523.002-.002.01-.0095.031-.0173.023-.0083.063-.0182.13-.0182zm1 .8878c0-.259-.099-.5007-.306-.669-.197-.1595-.447-.2188-.694-.2188v.8c.129 0 .179.0316.189.0395.004.0032.004.0045.005.0063.001.0025.006.0146.006.042zm0 12.5248v-12.5248h-.8v12.5248zm-1 .8695c.371 0 .652-.1249.825-.3481.158-.2039.175-.4253.175-.5214h-.8c0 .0143-.005.0277-.007.0308 0 .0002-.001.0011-.003.0028s-.008.0057-.019.0105c-.023.0097-.074.0254-.171.0254zm-.975-.8695c0 .2.068.4276.248.6053.184.1798.438.2642.727.2642v-.8c-.068 0-.111-.0098-.134-.0183-.023-.0081-.031-.0156-.032-.0168 0-.0004-.009-.0075-.009-.0344zm0-12.5248v12.5248h.8v-12.5248zm11.586 1.0495-3.52 7.0411.716.3578 3.52-7.0412zm4.215 7.042-3.499-7.0411-.716.3559 3.498 7.0412zm-7.377.578h7.018v-.8h-7.018zm3.684-8.691 6.277 12.5576.716-.3577-6.277-12.5576zm-.162-.0663c.093 0 .142.0343.176.0913l.688-.4077c-.186-.3149-.506-.4836-.864-.4836zm-.207.1017c.036-.061.09-.1017.207-.1017v-.8c-.369 0-.704.165-.899.5005zm-6.221 12.4964 6.233-12.5187-.716-.3566-6.233 12.5187zm-.003.0042c-.004-.0059-.005-.0088-.005-.0084.001.0005.001.003.002.0071 0 .0042-.001.0078-.001.0102-.001.0024-.001.0018.001-.0018l-.705-.3792c-.143.2672-.122.5678.041.8139zm.103.067c-.062-.0185-.088-.0439-.103-.0668l-.667.4413c.13.1965.32.3265.543.3924zm.173-.0066c-.057.0213-.116.0232-.174.0062l-.225.7677c.221.0648.458.0585.68-.0251zm.093-.0694c-.011.0205-.031.0459-.093.0691l.281.7493c.218-.0817.404-.2266.519-.4432zm1.708-3.4541-1.713 3.4644.717.3546 1.713-3.4643zm8.326-.2226h-7.968v.8h7.968zm2.091 3.6775-1.734-3.4569-.715.3587 1.734 3.4569zm.175.0886c-.131 0-.155-.0447-.166-.071l-.732.3235c.165.3729.518.5475.898.5475zm.067-.0052c.005-.002.002-.0003-.011.0016-.012.002-.031.0036-.056.0036v.8c.113 0 .241-.0139.361-.0614zm.114-.1049c.008.0223.007.0338.007.0363v.0014c-.001.0007-.005.0081-.02.0193-.015.0116-.041.027-.083.0411l.258.7573c.219-.0748.419-.2109.539-.4203.124-.2158.134-.4615.057-.6902zm.378.2724h.001v-.8h-.001z" mask="url(#a)"/></g></svg>