<svg width="8" height="12" viewBox="0 0 8 12" fill="none">
    <path d="M5.42712 6.00254L0.937948 1.51317C0.814338 1.38985 0.746338 1.22498 0.746338 1.04917C0.746338 0.873268 0.814338 0.708488 0.937948 0.584976L1.33131 0.191805C1.45473 0.0680976 1.6197 0 1.79551 0C1.97131 0 2.13609 0.0680976 2.25961 0.191805L7.60468 5.53678C7.72868 5.66068 7.79658 5.82624 7.79609 6.00224C7.79658 6.17902 7.72878 6.34439 7.60468 6.46839L2.26458 11.8082C2.14107 11.9319 1.97629 12 1.80039 12C1.62458 12 1.4598 11.9319 1.33619 11.8082L0.942924 11.415C0.687021 11.1591 0.687021 10.7425 0.942924 10.4867L5.42712 6.00254Z" fill="black"/>
</svg>
