<svg width="71" height="83" viewBox="0 0 71 83" fill="none" xmlns="http://www.w3.org/2000/svg">
<path d="M17.4749 10.4262C28.3253 4.308 41.7063 4.5125 52.5535 10.9623V10.9623C63.3563 17.3858 70.0055 29.1244 70.0023 41.6116V41.6116C69.999 54.0989 63.3439 65.6341 52.5378 71.7274V71.7274C41.6874 77.8456 28.3064 77.6411 17.4592 71.1913V71.1913C6.65638 64.7678 0.00722553 53.0292 0.0104395 40.542V40.542C0.0136534 28.0547 6.6688 16.5195 17.4749 10.4262V10.4262Z" fill="#53A152"/>
<path d="M31.3975 2.57567C33.6371 1.3128 36.3961 1.35496 38.635 2.68628L66.3892 19.1892C68.6282 20.5205 70.0071 22.9387 70.0064 25.5329L69.9981 57.6903C69.9975 60.2845 68.6174 62.6606 66.3777 63.9234L38.6152 79.5779C36.3756 80.8408 33.6167 80.7986 31.3777 79.4673L3.62347 62.9644C1.38449 61.6331 0.00563349 59.2148 0.00630117 56.6207L0.0145777 24.4633C0.0152454 21.8691 1.39534 19.493 3.63498 18.2301L31.3975 2.57567Z" fill="#53A152"/>
<g clip-path="url(#clip0)">
<path d="M50.7731 40.3658C47.6829 36.6008 41.1405 32.2072 34 32.2072C26.8339 32.2072 20.2912 36.6307 17.2269 40.3658C16.9243 40.7345 16.9243 41.2656 17.2269 41.6343C20.3903 45.4903 26.9481 49.793 34 49.793C41.3025 49.793 47.817 45.2358 50.7731 41.6344C51.0756 41.2656 51.0756 40.7345 50.7731 40.3658ZM40.7929 41C40.7929 44.7456 37.7456 47.793 33.9999 47.793C30.2542 47.793 27.207 44.7454 27.207 41C27.207 37.2544 30.2543 34.2071 33.9999 34.2071C37.7459 34.2072 40.7929 37.2548 40.7929 41ZM19.3508 41.0003C20.4763 39.8305 23.1902 37.3059 26.9999 35.6856C24.6091 38.827 24.6081 43.1704 26.9987 46.313C24.1021 45.0854 21.4113 43.1458 19.3508 41.0003ZM41.0001 46.3145C43.3909 43.173 43.3918 38.8296 41.0013 35.687C43.8977 36.9147 46.5886 38.8544 48.6492 40.9997C47.5237 42.1696 44.8098 44.6941 41.0001 46.3145Z" fill="white"/>
<path d="M30.6 41C30.6 42.8748 32.1252 44.4 34 44.4C35.8747 44.4 37.4 42.8748 37.4 41C37.4 39.1252 35.8747 37.6 34 37.6C32.1252 37.6 30.6 39.1252 30.6 41ZM35.4 41C35.4 41.772 34.7719 42.4 34 42.4C33.228 42.4 32.6 41.772 32.6 41C32.6 40.228 33.228 39.6 34 39.6C34.7719 39.6 35.4 40.228 35.4 41Z" fill="white"/>
<path d="M34 28.3333C34.5523 28.3333 35 27.8856 35 27.3333V25C35 24.4477 34.5523 24 34 24C33.4477 24 33 24.4477 33 25V27.3333C33 27.8856 33.4477 28.3333 34 28.3333Z" fill="white"/>
<path d="M39.9667 29.6708C40.4461 29.9443 41.057 29.7776 41.3307 29.2976L42.6615 26.9642C42.9351 26.4845 42.7681 25.8738 42.2883 25.6002C41.8085 25.3266 41.1979 25.4936 40.9243 25.9734L39.5935 28.3068C39.3199 28.7864 39.4869 29.3972 39.9667 29.6708Z" fill="white"/>
<path d="M26.6693 29.2975C26.9429 29.7773 27.5535 29.9443 28.0333 29.6707C28.5131 29.3971 28.6801 28.7864 28.4065 28.3067L27.0757 25.9733C26.8021 25.4936 26.1913 25.3265 25.7117 25.6001C25.2319 25.8737 25.0649 26.4845 25.3385 26.9642L26.6693 29.2975Z" fill="white"/>
<path d="M34 53.6667C33.4477 53.6667 33 54.1144 33 54.6667V57C33 57.5523 33.4477 58 34 58C34.5523 58 35 57.5523 35 57V54.6667C35 54.1144 34.5523 53.6667 34 53.6667Z" fill="white"/>
<path d="M28.0333 52.3292C27.5536 52.0557 26.9429 52.2227 26.6693 52.7024L25.3385 55.0358C25.0649 55.5155 25.2319 56.1262 25.7117 56.3998C26.1915 56.6734 26.8021 56.5063 27.0757 56.0266L28.4065 53.6933C28.6802 53.2136 28.5131 52.6028 28.0333 52.3292V52.3292Z" fill="white"/>
<path d="M41.3307 52.7025C41.0571 52.2227 40.4463 52.0557 39.9667 52.3292C39.4869 52.6028 39.3199 53.2135 39.5935 53.6933L40.9243 56.0266C41.1978 56.5063 41.8085 56.6735 42.2883 56.3999C42.7681 56.1263 42.9351 55.5155 42.6615 55.0358L41.3307 52.7025Z" fill="white"/>
</g>
<defs>
<clipPath id="clip0">
<rect width="34" height="34" fill="white" transform="translate(17 24)"/>
</clipPath>
</defs>
</svg>
