<svg width="71" height="86" viewBox="0 0 71 86" fill="none" xmlns="http://www.w3.org/2000/svg">
<path d="M17.0855 11.8751C28.1316 5.45979 41.8997 5.67651 52.9425 12.4395C63.5254 18.9209 70.0055 30.4404 70.0024 42.7666L70.0019 44.7722C69.9988 57.0983 63.513 68.4137 52.927 74.5619C41.8809 80.9772 28.1128 80.7604 17.07 73.9974C6.48707 67.5161 0.00698667 55.9966 0.0100668 43.6704L0.010568 41.6648C0.0136481 29.3386 6.49944 18.0232 17.0855 11.8751Z" fill="#53A152"/>
<path d="M31.3973 3.56311C33.637 2.26237 36.3959 2.3058 38.6349 3.67703L66.3891 20.6747C68.6281 22.0459 70.0069 24.5367 70.0063 27.2086L69.998 60.3301C69.9973 63.002 68.6172 65.4493 66.3776 66.7501L38.6151 82.8739C36.3755 84.1746 33.6165 84.1312 31.3775 82.7599L3.62335 65.7622C1.38437 64.391 0.00551142 61.9003 0.0061791 59.2283L0.0144557 26.1069C0.0151234 23.4349 1.39521 20.9876 3.63486 19.6869L31.3973 3.56311Z" fill="#53A152"/>
<g clip-path="url(#clip0)">
<path d="M50.7731 42.4861C47.6829 38.6083 41.1405 34.0829 34 34.0829C26.834 34.0829 20.2912 38.6391 17.2269 42.4861C16.9244 42.8659 16.9244 43.4129 17.2269 43.7927C20.3904 47.7643 26.9482 52.1959 34 52.1959C41.3025 52.1959 47.8171 47.5022 50.7731 43.7928C51.0757 43.4129 51.0757 42.8659 50.7731 42.4861ZM40.7929 43.1394C40.7929 46.9973 37.7456 50.136 34 50.136C30.2542 50.136 27.207 46.9971 27.207 43.1394C27.207 39.2815 30.2543 36.1428 34 36.1428C37.746 36.1429 40.7929 39.2819 40.7929 43.1394ZM19.3508 43.1397C20.4764 41.9348 23.1902 39.3345 26.9999 37.6656C24.6091 40.9013 24.6082 45.3749 26.9988 48.6117C24.1022 47.3472 21.4114 45.3495 19.3508 43.1397ZM41.0002 48.6132C43.391 45.3775 43.3918 40.9039 41.0013 37.6671C43.8978 38.9316 46.5886 40.9294 48.6492 43.1391C47.5237 44.3441 44.8098 46.9442 41.0002 48.6132Z" fill="white"/>
<path d="M30.6001 43.1394C30.6001 45.0704 32.1253 46.6413 34.0001 46.6413C35.8748 46.6413 37.4001 45.0704 37.4001 43.1394C37.4001 41.2084 35.8748 39.6375 34.0001 39.6375C32.1253 39.6375 30.6001 41.2084 30.6001 43.1394ZM35.4001 43.1394C35.4001 43.9346 34.772 44.5814 34.0001 44.5814C33.2281 44.5814 32.6001 43.9346 32.6001 43.1394C32.6001 42.3443 33.2281 41.6975 34.0001 41.6975C34.772 41.6975 35.4001 42.3443 35.4001 43.1394Z" fill="white"/>
<path d="M34 30.093C34.5523 30.093 35 29.6318 35 29.063V26.6597C35 26.0909 34.5523 25.6297 34 25.6297C33.4477 25.6297 33 26.0909 33 26.6597V29.063C33 29.6318 33.4477 30.093 34 30.093Z" fill="white"/>
<path d="M39.9666 31.4706C40.4461 31.7522 41.057 31.5805 41.3307 31.0861L42.6615 28.6828C42.9351 28.1887 42.7681 27.5597 42.2883 27.2779C41.8084 26.9961 41.1979 27.1681 40.9242 27.6623L39.5934 30.0656C39.3198 30.5597 39.4869 31.1887 39.9666 31.4706Z" fill="white"/>
<path d="M26.6694 31.0861C26.943 31.5802 27.5536 31.7523 28.0334 31.4705C28.5132 31.1887 28.6802 30.5597 28.4066 30.0655L27.0758 27.6623C26.8022 27.1681 26.1914 26.9961 25.7118 27.2779C25.232 27.5597 25.0649 28.1887 25.3385 28.6828L26.6694 31.0861Z" fill="white"/>
<path d="M34 56.1858C33.4477 56.1858 33 56.647 33 57.2158V59.6191C33 60.1879 33.4477 60.6491 34 60.6491C34.5523 60.6491 35 60.1879 35 59.6191V57.2158C35 56.647 34.5523 56.1858 34 56.1858Z" fill="white"/>
<path d="M28.0334 54.8083C27.5537 54.5265 26.943 54.6986 26.6693 55.1927L25.3385 57.596C25.0649 58.0901 25.232 58.7191 25.7117 59.0009C26.1915 59.2827 26.8022 59.1106 27.0758 58.6165L28.4066 56.2132C28.6803 55.7191 28.5131 55.0901 28.0334 54.8083Z" fill="white"/>
<path d="M41.3307 55.1927C41.0571 54.6985 40.4462 54.5266 39.9666 54.8082C39.4869 55.09 39.3198 55.7191 39.5934 56.2132L40.9242 58.6165C41.1978 59.1106 41.8084 59.2827 42.2883 59.0009C42.768 58.7191 42.9351 58.0901 42.6615 57.596L41.3307 55.1927Z" fill="white"/>
</g>
<defs>
<clipPath id="clip0">
<rect width="34" height="35.0193" fill="white" transform="translate(17 25.6298)"/>
</clipPath>
</defs>
</svg>
