<svg width="20" height="20" viewBox="0 0 20 20" fill="none" xmlns="http://www.w3.org/2000/svg">
<path d="M2.92969 19.9995H9.45312V12.8901H7.10938V10.5464H9.45312V7.6167C9.45312 6.00125 10.7674 4.68701 12.3828 4.68701H15.3125V7.03076H12.9688C12.3225 7.03076 11.7969 7.55643 11.7969 8.20264V10.5464H15.2068L14.8161 12.8901H11.7969V19.9995H17.0703C18.6858 19.9995 20 18.6853 20 17.0698V2.9292C20 1.31375 18.6858 -0.000488281 17.0703 -0.000488281H2.92969C1.31424 -0.000488281 0 1.31375 0 2.9292V17.0698C0 18.6853 1.31424 19.9995 2.92969 19.9995ZM1.17188 2.9292C1.17188 1.95996 1.96045 1.17139 2.92969 1.17139H17.0703C18.0396 1.17139 18.8281 1.95996 18.8281 2.9292V17.0698C18.8281 18.0391 18.0396 18.8276 17.0703 18.8276H12.9688V14.062H15.8089L16.5901 9.37451H12.9688V8.20264H16.4844V3.51514H12.3828C10.1212 3.51514 8.28125 5.35504 8.28125 7.6167V9.37451H5.9375V14.062H8.28125V18.8276H2.92969C1.96045 18.8276 1.17188 18.0391 1.17188 17.0698V2.9292Z" fill="white"/>
</svg>
