<svg width="20" height="20" viewBox="0 0 20 20" fill="none" xmlns="http://www.w3.org/2000/svg">
<g clip-path="url(#clip0)">
<path d="M2.92969 19.9995H17.0703C18.6858 19.9995 20 18.6853 20 17.0698V2.9292C20 1.31375 18.6858 -0.000488281 17.0703 -0.000488281H2.92969C1.31424 -0.000488281 0 1.31375 0 2.9292V17.0698C0 18.6853 1.31424 19.9995 2.92969 19.9995ZM1.17188 2.9292C1.17188 1.95996 1.96045 1.17139 2.92969 1.17139H17.0703C18.0396 1.17139 18.8281 1.95996 18.8281 2.9292V17.0698C18.8281 18.0391 18.0396 18.8276 17.0703 18.8276H2.92969C1.96045 18.8276 1.17188 18.0391 1.17188 17.0698V2.9292Z" fill="white"/>
<path d="M10 15.2729C12.9077 15.2729 15.2734 12.9072 15.2734 9.99951C15.2734 7.0918 12.9077 4.72607 10 4.72607C7.09229 4.72607 4.72656 7.0918 4.72656 9.99951C4.72656 12.9072 7.09229 15.2729 10 15.2729ZM10 5.89795C12.2617 5.89795 14.1016 7.73785 14.1016 9.99951C14.1016 12.2612 12.2617 14.1011 10 14.1011C7.73834 14.1011 5.89844 12.2612 5.89844 9.99951C5.89844 7.73785 7.73834 5.89795 10 5.89795Z" fill="white"/>
<path d="M15.8594 5.89795C16.8286 5.89795 17.6172 5.10938 17.6172 4.14014C17.6172 3.1709 16.8286 2.38232 15.8594 2.38232C14.8901 2.38232 14.1016 3.1709 14.1016 4.14014C14.1016 5.10938 14.8901 5.89795 15.8594 5.89795ZM15.8594 3.5542C16.1824 3.5542 16.4453 3.81711 16.4453 4.14014C16.4453 4.46317 16.1824 4.72607 15.8594 4.72607C15.5363 4.72607 15.2734 4.46317 15.2734 4.14014C15.2734 3.81711 15.5363 3.5542 15.8594 3.5542Z" fill="white"/>
</g>
<defs>
<clipPath id="clip0">
<rect width="20" height="20" fill="white" transform="translate(0 -0.000488281)"/>
</clipPath>
</defs>
</svg>
