<svg width="34" height="36" viewBox="0 0 34 36" fill="none" xmlns="http://www.w3.org/2000/svg">
<g clip-path="url(#clip0)">
<path d="M33.7731 17.4861C30.6829 13.6083 24.1405 9.08293 17 9.08293C9.83396 9.08293 3.29123 13.6391 0.2269 17.4861C-0.0756333 17.8659 -0.0756333 18.4129 0.2269 18.7927C3.39036 22.7643 9.94816 27.1959 17 27.1959C24.3025 27.1959 30.8171 22.5022 33.7731 18.7928C34.0757 18.4129 34.0757 17.8659 33.7731 17.4861ZM23.7929 18.1394C23.7929 21.9973 20.7456 25.136 17 25.136C13.2542 25.136 10.207 21.9971 10.207 18.1394C10.207 14.2815 13.2543 11.1428 17 11.1428C20.746 11.1429 23.7929 14.2819 23.7929 18.1394ZM2.35083 18.1397C3.47636 16.9348 6.19023 14.3345 9.99989 12.6656C7.6091 15.9013 7.60816 20.3749 9.99876 23.6117C7.10216 22.3472 4.41136 20.3495 2.35083 18.1397ZM24.0002 23.6132C26.391 20.3775 26.3918 15.9039 24.0013 12.6671C26.8978 13.9316 29.5886 15.9294 31.6492 18.1391C30.5237 19.3441 27.8098 21.9442 24.0002 23.6132Z" fill="white"/>
<path d="M13.6001 18.1394C13.6001 20.0704 15.1253 21.6413 17.0001 21.6413C18.8748 21.6413 20.4001 20.0704 20.4001 18.1394C20.4001 16.2084 18.8748 14.6375 17.0001 14.6375C15.1253 14.6375 13.6001 16.2084 13.6001 18.1394ZM18.4001 18.1394C18.4001 18.9346 17.772 19.5814 17.0001 19.5814C16.2281 19.5814 15.6001 18.9346 15.6001 18.1394C15.6001 17.3443 16.2281 16.6975 17.0001 16.6975C17.772 16.6975 18.4001 17.3443 18.4001 18.1394Z" fill="white"/>
<path d="M17 5.09299C17.5523 5.09299 18 4.63183 18 4.06301V1.65972C18 1.0909 17.5523 0.629745 17 0.629745C16.4477 0.629745 16 1.0909 16 1.65972V4.06301C16 4.63183 16.4477 5.09299 17 5.09299Z" fill="white"/>
<path d="M22.9666 6.47057C23.4461 6.75223 24.057 6.5805 24.3307 6.08611L25.6615 3.68283C25.9351 3.18871 25.7681 2.55974 25.2883 2.27787C24.8084 1.99607 24.1979 2.16807 23.9242 2.66233L22.5934 5.06561C22.3198 5.55966 22.4869 6.1887 22.9666 6.47057Z" fill="white"/>
<path d="M9.66935 6.08612C9.94295 6.58023 10.5536 6.75231 11.0334 6.4705C11.5132 6.1887 11.6802 5.55966 11.4066 5.06554L10.0758 2.66226C9.80222 2.16814 9.19142 1.99607 8.71175 2.27787C8.23202 2.55967 8.06495 3.18872 8.33855 3.68283L9.66935 6.08612Z" fill="white"/>
<path d="M17 31.1858C16.4477 31.1858 16 31.647 16 32.2158V34.6191C16 35.1879 16.4477 35.6491 17 35.6491C17.5523 35.6491 18 35.1879 18 34.6191V32.2158C18 31.647 17.5523 31.1858 17 31.1858Z" fill="white"/>
<path d="M11.0334 29.8083C10.5537 29.5265 9.94302 29.6986 9.66935 30.1927L8.33855 32.596C8.06495 33.0901 8.23202 33.7191 8.71175 34.0009C9.19155 34.2827 9.80222 34.1106 10.0758 33.6165L11.4066 31.2132C11.6803 30.7191 11.5131 30.0901 11.0334 29.8083Z" fill="white"/>
<path d="M24.3307 30.1927C24.0571 29.6985 23.4462 29.5266 22.9666 29.8082C22.4869 30.09 22.3198 30.7191 22.5934 31.2132L23.9242 33.6165C24.1978 34.1106 24.8084 34.2827 25.2883 34.0009C25.768 33.7191 25.9351 33.0901 25.6615 32.596L24.3307 30.1927Z" fill="white"/>
</g>
<defs>
<clipPath id="clip0">
<rect width="34" height="35.0193" fill="white" transform="translate(0 0.629761)"/>
</clipPath>
</defs>
</svg>
