<svg width="162" height="184" viewBox="0 0 162 184" fill="none">
    <defs>
        <mask id="news_mask">
            <path d="M40.4077 21.109C65.4976 6.96159 96.4393 7.43447 121.522 22.3487V22.3487C146.502 37.202 161.877 64.3458 161.869 93.2206V93.2206C161.862 122.095 146.473 148.769 121.485 162.859V162.859C96.3956 177.006 65.4539 176.533 40.3716 161.619V161.619C15.3916 146.766 0.0164136 119.622 0.0238453 90.7471V90.7471C0.031277 61.8723 15.4203 35.1987 40.4077 21.109V21.109Z" fill="#7B0A52"/>
            <path d="M72.6016 2.95585C77.7804 0.0356482 84.1601 0.133148 89.3374 3.21162L153.515 41.3721C158.692 44.4506 161.88 50.0424 161.879 56.041L161.86 130.4C161.858 136.399 158.667 141.893 153.488 144.813L89.2916 181.012C84.1128 183.932 77.7331 183.835 72.5558 180.756L8.37843 142.596C3.20113 139.517 0.0127322 133.925 0.0142761 127.927L0.0334144 53.5676C0.0349584 47.5689 3.22621 42.0747 8.40506 39.1544L72.6016 2.95585Z" fill="#7B0A52"/>
        </mask>
    </defs>
</svg>
