<svg width="20" height="20" viewBox="0 0 20 20" fill="none" xmlns="http://www.w3.org/2000/svg">
<path d="M2.92969 17.6167H17.0703C18.6858 17.6167 20 16.3025 20 14.687V5.31201C20 3.69656 18.6858 2.38232 17.0703 2.38232H2.92969C1.31424 2.38232 0 3.69656 0 5.31201V14.687C0 16.3025 1.31424 17.6167 2.92969 17.6167ZM1.17188 5.31201C1.17188 4.34277 1.96045 3.5542 2.92969 3.5542H17.0703C18.0396 3.5542 18.8281 4.34277 18.8281 5.31201V14.687C18.8281 15.6562 18.0396 16.4448 17.0703 16.4448H2.92969C1.96045 16.4448 1.17188 15.6562 1.17188 14.687V5.31201Z" fill="white"/>
<path d="M7.07031 6.07397V14.0388L14.1211 9.99106L7.07031 6.07397ZM8.24219 8.06555L11.7383 10.0078L8.24219 12.0148V8.06555Z" fill="white"/>
</svg>
